<?xml version="1.0" encoding="UTF-8" standalone="no"?>
<!DOCTYPE svg PUBLIC "-//W3C//DTD SVG 1.1//EN"
 "http://www.w3.org/Graphics/SVG/1.1/DTD/svg11.dtd">
<!-- Generated by graphviz version 8.1.0 (20230707.0739)
 -->
<!-- Title: G Pages: 1 -->
<svg width="3372pt" height="1559pt"
 viewBox="0.00 0.00 3372.45 1558.70" xmlns="http://www.w3.org/2000/svg" xmlns:xlink="http://www.w3.org/1999/xlink">
<g id="graph0" class="graph" transform="scale(1 1) rotate(0) translate(21.6 1537.1)">
<title>G</title>
<polygon fill="#111111" stroke="none" points="-21.6,21.6 -21.6,-1537.1 3350.85,-1537.1 3350.85,21.6 -21.6,21.6"/>
<!-- core/cache/base/SyBaseCache.ts -->
<g id="node1" class="node">
<title>core/cache/base/SyBaseCache.ts</title>
<path fill="none" stroke="#c6c5fe" d="M1681.21,-1198.5C1681.21,-1198.5 1466.29,-1198.5 1466.29,-1198.5 1462.21,-1198.5 1458.12,-1194.42 1458.12,-1190.33 1458.12,-1190.33 1458.12,-1182.17 1458.12,-1182.17 1458.12,-1178.08 1462.21,-1174 1466.29,-1174 1466.29,-1174 1681.21,-1174 1681.21,-1174 1685.29,-1174 1689.38,-1178.08 1689.38,-1182.17 1689.38,-1182.17 1689.38,-1190.33 1689.38,-1190.33 1689.38,-1194.42 1685.29,-1198.5 1681.21,-1198.5"/>
<text text-anchor="middle" x="1573.75" y="-1181.2" font-family="Arial" font-size="14.00" fill="#c6c5fe">core/cache/base/SyBaseCache.ts</text>
</g>
<!-- core/cache/base/mixins/SyPersistMixin.ts -->
<g id="node2" class="node">
<title>core/cache/base/mixins/SyPersistMixin.ts</title>
<path fill="none" stroke="#ff6c60" d="M2060.96,-1189.5C2060.96,-1189.5 1801.04,-1189.5 1801.04,-1189.5 1796.96,-1189.5 1792.88,-1185.42 1792.88,-1181.33 1792.88,-1181.33 1792.88,-1173.17 1792.88,-1173.17 1792.88,-1169.08 1796.96,-1165 1801.04,-1165 1801.04,-1165 2060.96,-1165 2060.96,-1165 2065.04,-1165 2069.12,-1169.08 2069.12,-1173.17 2069.12,-1173.17 2069.12,-1181.33 2069.12,-1181.33 2069.12,-1185.42 2065.04,-1189.5 2060.96,-1189.5"/>
<text text-anchor="middle" x="1931" y="-1172.2" font-family="Arial" font-size="14.00" fill="#ff6c60">core/cache/base/mixins/SyPersistMixin.ts</text>
</g>
<!-- core/cache/base/SyBaseCache.ts&#45;&gt;core/cache/base/mixins/SyPersistMixin.ts -->
<g id="edge1" class="edge">
<title>core/cache/base/SyBaseCache.ts&#45;&gt;core/cache/base/mixins/SyPersistMixin.ts</title>
<path fill="none" stroke="#757575" d="M1689.6,-1183.34C1718.98,-1182.6 1750.98,-1181.79 1781.77,-1181.01"/>
<polygon fill="#757575" stroke="#757575" points="1781.7,-1184.48 1791.61,-1180.73 1781.52,-1177.49 1781.7,-1184.48"/>
</g>
<!-- core/cache/types.ts -->
<g id="node3" class="node">
<title>core/cache/types.ts</title>
<path fill="none" stroke="#ff6c60" d="M2355.96,-1130.5C2355.96,-1130.5 2232.54,-1130.5 2232.54,-1130.5 2228.46,-1130.5 2224.38,-1126.42 2224.38,-1122.33 2224.38,-1122.33 2224.38,-1114.17 2224.38,-1114.17 2224.38,-1110.08 2228.46,-1106 2232.54,-1106 2232.54,-1106 2355.96,-1106 2355.96,-1106 2360.04,-1106 2364.12,-1110.08 2364.12,-1114.17 2364.12,-1114.17 2364.12,-1122.33 2364.12,-1122.33 2364.12,-1126.42 2360.04,-1130.5 2355.96,-1130.5"/>
<text text-anchor="middle" x="2294.25" y="-1113.2" font-family="Arial" font-size="14.00" fill="#ff6c60">core/cache/types.ts</text>
</g>
<!-- core/cache/base/SyBaseCache.ts&#45;&gt;core/cache/types.ts -->
<g id="edge2" class="edge">
<title>core/cache/base/SyBaseCache.ts&#45;&gt;core/cache/types.ts</title>
<path fill="none" stroke="#757575" d="M1645.55,-1173.55C1681.01,-1167.57 1724.67,-1160.77 1764,-1156.25 1922.88,-1137.99 2109.67,-1127.02 2213.44,-1121.85"/>
<polygon fill="#757575" stroke="#757575" points="2213.33,-1125.31 2223.14,-1121.32 2212.98,-1118.32 2213.33,-1125.31"/>
</g>
<!-- core/logging/SyLogger.ts -->
<g id="node4" class="node">
<title>core/logging/SyLogger.ts</title>
<path fill="none" stroke="#c6c5fe" d="M2701.58,-1229.5C2701.58,-1229.5 2542.17,-1229.5 2542.17,-1229.5 2538.08,-1229.5 2534,-1225.42 2534,-1221.33 2534,-1221.33 2534,-1213.17 2534,-1213.17 2534,-1209.08 2538.08,-1205 2542.17,-1205 2542.17,-1205 2701.58,-1205 2701.58,-1205 2705.67,-1205 2709.75,-1209.08 2709.75,-1213.17 2709.75,-1213.17 2709.75,-1221.33 2709.75,-1221.33 2709.75,-1225.42 2705.67,-1229.5 2701.58,-1229.5"/>
<text text-anchor="middle" x="2621.88" y="-1212.2" font-family="Arial" font-size="14.00" fill="#c6c5fe">core/logging/SyLogger.ts</text>
</g>
<!-- core/cache/base/SyBaseCache.ts&#45;&gt;core/logging/SyLogger.ts -->
<g id="edge3" class="edge">
<title>core/cache/base/SyBaseCache.ts&#45;&gt;core/logging/SyLogger.ts</title>
<path fill="none" stroke="#757575" d="M1689.8,-1194.3C1714.28,-1195.81 1739.99,-1197.22 1764,-1198.25 2038.85,-1210.01 2363.61,-1214.69 2522.85,-1216.39"/>
<polygon fill="#757575" stroke="#757575" points="2522.53,-1219.89 2532.56,-1216.5 2522.6,-1212.9 2522.53,-1219.89"/>
</g>
<!-- core/cache/base/mixins/SyPersistMixin.ts&#45;&gt;core/cache/types.ts -->
<g id="edge4" class="edge">
<title>core/cache/base/mixins/SyPersistMixin.ts&#45;&gt;core/cache/types.ts</title>
<path fill="none" stroke="#757575" d="M1968.94,-1164.55C2002.6,-1157.41 2053.66,-1149.47 2098,-1142.25 2135.98,-1136.07 2178.07,-1128.98 2213.42,-1123.72"/>
<polygon fill="#757575" stroke="#757575" points="2213.77,-1127.06 2223.16,-1122.15 2212.76,-1120.13 2213.77,-1127.06"/>
</g>
<!-- core/cache/base/mixins/SyPersistMixin.ts&#45;&gt;core/logging/SyLogger.ts -->
<g id="edge5" class="edge">
<title>core/cache/base/mixins/SyPersistMixin.ts&#45;&gt;core/logging/SyLogger.ts</title>
<path fill="none" stroke="#757575" d="M2069.59,-1182.81C2174.99,-1187.38 2324.01,-1194.52 2454.5,-1203.25 2476.62,-1204.73 2500.37,-1206.58 2522.81,-1208.44"/>
<polygon fill="#757575" stroke="#757575" points="2522.45,-1212 2532.71,-1209.35 2523.03,-1205.03 2522.45,-1212"/>
</g>
<!-- core/cache/types.ts&#45;&gt;core/cache/base/mixins/SyPersistMixin.ts -->
<g id="edge29" class="edge">
<title>core/cache/types.ts&#45;&gt;core/cache/base/mixins/SyPersistMixin.ts</title>
<path fill="none" stroke="#757575" d="M2258,-1130.93C2218.91,-1140.06 2153.99,-1151.13 2098,-1160.25 2092.01,-1161.23 2085.89,-1162.22 2079.71,-1163.2"/>
<polygon fill="#757575" stroke="#757575" points="2079.58,-1159.84 2070.26,-1164.87 2080.68,-1166.75 2079.58,-1159.84"/>
</g>
<!-- core/cache/types.ts&#45;&gt;core/logging/SyLogger.ts -->
<g id="edge31" class="edge">
<title>core/cache/types.ts&#45;&gt;core/logging/SyLogger.ts</title>
<path fill="none" stroke="#757575" d="M2340.31,-1130.91C2372.25,-1139.97 2416.09,-1152.59 2454.5,-1164.25 2494.02,-1176.25 2538.61,-1190.49 2571.67,-1201.19"/>
<polygon fill="#757575" stroke="#757575" points="2570.38,-1204.77 2580.97,-1204.53 2572.54,-1198.12 2570.38,-1204.77"/>
</g>
<!-- core/cache/clients/lfu/mixins/ListItem.ts -->
<g id="node9" class="node">
<title>core/cache/clients/lfu/mixins/ListItem.ts</title>
<path fill="none" stroke="#ff6c60" d="M2745.08,-898.5C2745.08,-898.5 2498.67,-898.5 2498.67,-898.5 2494.58,-898.5 2490.5,-894.42 2490.5,-890.33 2490.5,-890.33 2490.5,-882.17 2490.5,-882.17 2490.5,-878.08 2494.58,-874 2498.67,-874 2498.67,-874 2745.08,-874 2745.08,-874 2749.17,-874 2753.25,-878.08 2753.25,-882.17 2753.25,-882.17 2753.25,-890.33 2753.25,-890.33 2753.25,-894.42 2749.17,-898.5 2745.08,-898.5"/>
<text text-anchor="middle" x="2621.88" y="-881.2" font-family="Arial" font-size="14.00" fill="#ff6c60">core/cache/clients/lfu/mixins/ListItem.ts</text>
</g>
<!-- core/cache/types.ts&#45;&gt;core/cache/clients/lfu/mixins/ListItem.ts -->
<g id="edge30" class="edge">
<title>core/cache/types.ts&#45;&gt;core/cache/clients/lfu/mixins/ListItem.ts</title>
<path fill="none" stroke="#757575" d="M2314.4,-1105.73C2345.38,-1090.67 2407.7,-1065.22 2454.5,-1033.25 2511.23,-994.5 2567.48,-936.62 2597.85,-906.14"/>
<polygon fill="#757575" stroke="#757575" points="2599.74,-909.2 2604.35,-899.66 2594.8,-904.24 2599.74,-909.2"/>
</g>
<!-- core/logging/defaults.ts -->
<g id="node19" class="node">
<title>core/logging/defaults.ts</title>
<path fill="none" stroke="#c6c5fe" d="M2944.83,-1229.5C2944.83,-1229.5 2797.42,-1229.5 2797.42,-1229.5 2793.33,-1229.5 2789.25,-1225.42 2789.25,-1221.33 2789.25,-1221.33 2789.25,-1213.17 2789.25,-1213.17 2789.25,-1209.08 2793.33,-1205 2797.42,-1205 2797.42,-1205 2944.83,-1205 2944.83,-1205 2948.92,-1205 2953,-1209.08 2953,-1213.17 2953,-1213.17 2953,-1221.33 2953,-1221.33 2953,-1225.42 2948.92,-1229.5 2944.83,-1229.5"/>
<text text-anchor="middle" x="2871.12" y="-1212.2" font-family="Arial" font-size="14.00" fill="#c6c5fe">core/logging/defaults.ts</text>
</g>
<!-- core/logging/SyLogger.ts&#45;&gt;core/logging/defaults.ts -->
<g id="edge35" class="edge">
<title>core/logging/SyLogger.ts&#45;&gt;core/logging/defaults.ts</title>
<path fill="none" stroke="#757575" d="M2710.05,-1217.25C2732.15,-1217.25 2755.96,-1217.25 2778.29,-1217.25"/>
<polygon fill="#757575" stroke="#757575" points="2778.12,-1220.75 2788.12,-1217.25 2778.12,-1213.75 2778.12,-1220.75"/>
</g>
<!-- core/logging/enums.ts -->
<g id="node20" class="node">
<title>core/logging/enums.ts</title>
<path fill="none" stroke="#cfffac" d="M3321.08,-1228.5C3321.08,-1228.5 3181.17,-1228.5 3181.17,-1228.5 3177.08,-1228.5 3173,-1224.42 3173,-1220.33 3173,-1220.33 3173,-1212.17 3173,-1212.17 3173,-1208.08 3177.08,-1204 3181.17,-1204 3181.17,-1204 3321.08,-1204 3321.08,-1204 3325.17,-1204 3329.25,-1208.08 3329.25,-1212.17 3329.25,-1212.17 3329.25,-1220.33 3329.25,-1220.33 3329.25,-1224.42 3325.17,-1228.5 3321.08,-1228.5"/>
<text text-anchor="middle" x="3251.12" y="-1211.2" font-family="Arial" font-size="14.00" fill="#cfffac">core/logging/enums.ts</text>
</g>
<!-- core/logging/SyLogger.ts&#45;&gt;core/logging/enums.ts -->
<g id="edge36" class="edge">
<title>core/logging/SyLogger.ts&#45;&gt;core/logging/enums.ts</title>
<path fill="none" stroke="#757575" d="M2707.32,-1204.51C2733.51,-1201.12 2762.52,-1197.93 2789.25,-1196.25 2918.8,-1188.11 3069.05,-1198.29 3161.86,-1206.86"/>
<polygon fill="#757575" stroke="#757575" points="3161.33,-1210.42 3171.61,-1207.87 3161.98,-1203.45 3161.33,-1210.42"/>
</g>
<!-- core/logging/types.ts -->
<g id="node21" class="node">
<title>core/logging/types.ts</title>
<path fill="none" stroke="#c6c5fe" d="M3128.83,-1268.5C3128.83,-1268.5 2997.17,-1268.5 2997.17,-1268.5 2993.08,-1268.5 2989,-1264.42 2989,-1260.33 2989,-1260.33 2989,-1252.17 2989,-1252.17 2989,-1248.08 2993.08,-1244 2997.17,-1244 2997.17,-1244 3128.83,-1244 3128.83,-1244 3132.92,-1244 3137,-1248.08 3137,-1252.17 3137,-1252.17 3137,-1260.33 3137,-1260.33 3137,-1264.42 3132.92,-1268.5 3128.83,-1268.5"/>
<text text-anchor="middle" x="3063" y="-1251.2" font-family="Arial" font-size="14.00" fill="#c6c5fe">core/logging/types.ts</text>
</g>
<!-- core/logging/SyLogger.ts&#45;&gt;core/logging/types.ts -->
<g id="edge37" class="edge">
<title>core/logging/SyLogger.ts&#45;&gt;core/logging/types.ts</title>
<path fill="none" stroke="#757575" d="M2709.98,-1229.24C2735.49,-1232.48 2763.46,-1235.77 2789.25,-1238.25 2852.34,-1244.31 2923.83,-1248.94 2977.79,-1251.99"/>
<polygon fill="#757575" stroke="#757575" points="2977.5,-1255.54 2987.68,-1252.6 2977.89,-1248.55 2977.5,-1255.54"/>
</g>
<!-- core/cache/clients/lfu/SyLFUCache.ts -->
<g id="node5" class="node">
<title>core/cache/clients/lfu/SyLFUCache.ts</title>
<path fill="none" stroke="#ff6c60" d="M1374.58,-1075.5C1374.58,-1075.5 1137.92,-1075.5 1137.92,-1075.5 1133.83,-1075.5 1129.75,-1071.42 1129.75,-1067.33 1129.75,-1067.33 1129.75,-1059.17 1129.75,-1059.17 1129.75,-1055.08 1133.83,-1051 1137.92,-1051 1137.92,-1051 1374.58,-1051 1374.58,-1051 1378.67,-1051 1382.75,-1055.08 1382.75,-1059.17 1382.75,-1059.17 1382.75,-1067.33 1382.75,-1067.33 1382.75,-1071.42 1378.67,-1075.5 1374.58,-1075.5"/>
<text text-anchor="middle" x="1256.25" y="-1058.2" font-family="Arial" font-size="14.00" fill="#ff6c60">core/cache/clients/lfu/SyLFUCache.ts</text>
</g>
<!-- core/cache/clients/lfu/SyLFUCache.ts&#45;&gt;core/cache/base/SyBaseCache.ts -->
<g id="edge6" class="edge">
<title>core/cache/clients/lfu/SyLFUCache.ts&#45;&gt;core/cache/base/SyBaseCache.ts</title>
<path fill="none" stroke="#757575" d="M1289.24,-1075.96C1321.94,-1088.93 1374.22,-1109.6 1419.5,-1127.25 1456.61,-1141.71 1498.86,-1157.96 1529.58,-1169.74"/>
<polygon fill="#757575" stroke="#757575" points="1527.95,-1173.24 1538.54,-1173.55 1530.45,-1166.71 1527.95,-1173.24"/>
</g>
<!-- core/cache/clients/lfu/SyLFUCache.ts&#45;&gt;core/cache/types.ts -->
<g id="edge12" class="edge">
<title>core/cache/clients/lfu/SyLFUCache.ts&#45;&gt;core/cache/types.ts</title>
<path fill="none" stroke="#757575" d="M1339.59,-1050.51C1365.13,-1047.12 1393.42,-1043.93 1419.5,-1042.25 1556.33,-1033.43 1591.12,-1034.32 1728,-1042.25 1893.27,-1051.82 1934.1,-1061.89 2098,-1085.25 2136.09,-1090.68 2178.2,-1097.67 2213.52,-1103.82"/>
<polygon fill="#757575" stroke="#757575" points="2212.81,-1107.42 2223.26,-1105.69 2214.01,-1100.52 2212.81,-1107.42"/>
</g>
<!-- core/cache/clients/lfu/SyLFUCache.ts&#45;&gt;core/logging/SyLogger.ts -->
<g id="edge13" class="edge">
<title>core/cache/clients/lfu/SyLFUCache.ts&#45;&gt;core/logging/SyLogger.ts</title>
<path fill="none" stroke="#757575" d="M1274.82,-1075.84C1300.01,-1094.24 1347.32,-1130.11 1383.5,-1165.25 1401.14,-1182.38 1397.32,-1196.65 1419.5,-1207.25 1523.29,-1256.82 2339.52,-1229.36 2454.5,-1226.25 2476.62,-1225.65 2500.37,-1224.61 2522.8,-1223.44"/>
<polygon fill="#757575" stroke="#757575" points="2522.9,-1226.88 2532.7,-1222.85 2522.53,-1219.89 2522.9,-1226.88"/>
</g>
<!-- core/cache/clients/lfu/mixins/EvictionPolicy.ts -->
<g id="node6" class="node">
<title>core/cache/clients/lfu/mixins/EvictionPolicy.ts</title>
<path fill="none" stroke="#ff6c60" d="M1715.33,-995.5C1715.33,-995.5 1432.17,-995.5 1432.17,-995.5 1428.08,-995.5 1424,-991.42 1424,-987.33 1424,-987.33 1424,-979.17 1424,-979.17 1424,-975.08 1428.08,-971 1432.17,-971 1432.17,-971 1715.33,-971 1715.33,-971 1719.42,-971 1723.5,-975.08 1723.5,-979.17 1723.5,-979.17 1723.5,-987.33 1723.5,-987.33 1723.5,-991.42 1719.42,-995.5 1715.33,-995.5"/>
<text text-anchor="middle" x="1573.75" y="-978.2" font-family="Arial" font-size="14.00" fill="#ff6c60">core/cache/clients/lfu/mixins/EvictionPolicy.ts</text>
</g>
<!-- core/cache/clients/lfu/SyLFUCache.ts&#45;&gt;core/cache/clients/lfu/mixins/EvictionPolicy.ts -->
<g id="edge7" class="edge">
<title>core/cache/clients/lfu/SyLFUCache.ts&#45;&gt;core/cache/clients/lfu/mixins/EvictionPolicy.ts</title>
<path fill="none" stroke="#757575" d="M1275.47,-1050.56C1305.21,-1035.83 1366.21,-1013.55 1419.5,-1000.25 1422.13,-999.59 1424.8,-998.95 1427.49,-998.31"/>
<polygon fill="#757575" stroke="#757575" points="1427.98,-1001.56 1436.95,-995.93 1426.43,-994.74 1427.98,-1001.56"/>
</g>
<!-- core/cache/clients/lfu/mixins/FrequencyManager.ts -->
<g id="node7" class="node">
<title>core/cache/clients/lfu/mixins/FrequencyManager.ts</title>
<path fill="none" stroke="#c6c5fe" d="M2089.83,-877.5C2089.83,-877.5 1772.17,-877.5 1772.17,-877.5 1768.08,-877.5 1764,-873.42 1764,-869.33 1764,-869.33 1764,-861.17 1764,-861.17 1764,-857.08 1768.08,-853 1772.17,-853 1772.17,-853 2089.83,-853 2089.83,-853 2093.92,-853 2098,-857.08 2098,-861.17 2098,-861.17 2098,-869.33 2098,-869.33 2098,-873.42 2093.92,-877.5 2089.83,-877.5"/>
<text text-anchor="middle" x="1931" y="-860.2" font-family="Arial" font-size="14.00" fill="#c6c5fe">core/cache/clients/lfu/mixins/FrequencyManager.ts</text>
</g>
<!-- core/cache/clients/lfu/SyLFUCache.ts&#45;&gt;core/cache/clients/lfu/mixins/FrequencyManager.ts -->
<g id="edge8" class="edge">
<title>core/cache/clients/lfu/SyLFUCache.ts&#45;&gt;core/cache/clients/lfu/mixins/FrequencyManager.ts</title>
<path fill="none" stroke="#757575" d="M1272.77,-1050.8C1300.49,-1029.24 1361.09,-985.06 1419.5,-962.25 1535.16,-917.09 1674,-892.45 1777.68,-879.32"/>
<polygon fill="#757575" stroke="#757575" points="1778.06,-882.68 1787.55,-877.97 1777.2,-875.73 1778.06,-882.68"/>
</g>
<!-- core/cache/clients/lfu/mixins/LFUOperations.ts -->
<g id="node8" class="node">
<title>core/cache/clients/lfu/mixins/LFUOperations.ts</title>
<path fill="none" stroke="#ff6c60" d="M1719.83,-1118.5C1719.83,-1118.5 1427.67,-1118.5 1427.67,-1118.5 1423.58,-1118.5 1419.5,-1114.42 1419.5,-1110.33 1419.5,-1110.33 1419.5,-1102.17 1419.5,-1102.17 1419.5,-1098.08 1423.58,-1094 1427.67,-1094 1427.67,-1094 1719.83,-1094 1719.83,-1094 1723.92,-1094 1728,-1098.08 1728,-1102.17 1728,-1102.17 1728,-1110.33 1728,-1110.33 1728,-1114.42 1723.92,-1118.5 1719.83,-1118.5"/>
<text text-anchor="middle" x="1573.75" y="-1101.2" font-family="Arial" font-size="14.00" fill="#ff6c60">core/cache/clients/lfu/mixins/LFUOperations.ts</text>
</g>
<!-- core/cache/clients/lfu/SyLFUCache.ts&#45;&gt;core/cache/clients/lfu/mixins/LFUOperations.ts -->
<g id="edge9" class="edge">
<title>core/cache/clients/lfu/SyLFUCache.ts&#45;&gt;core/cache/clients/lfu/mixins/LFUOperations.ts</title>
<path fill="none" stroke="#757575" d="M1382.85,-1073.74C1425.37,-1079.2 1471.13,-1085.78 1507.08,-1091.7"/>
<polygon fill="#757575" stroke="#757575" points="1506.47,-1095.31 1516.91,-1093.51 1507.63,-1088.41 1506.47,-1095.31"/>
</g>
<!-- core/cache/clients/lfu/SyLFUCache.ts&#45;&gt;core/cache/clients/lfu/mixins/ListItem.ts -->
<g id="edge10" class="edge">
<title>core/cache/clients/lfu/SyLFUCache.ts&#45;&gt;core/cache/clients/lfu/mixins/ListItem.ts</title>
<path fill="none" stroke="#757575" d="M1264.04,-1050.94C1283.3,-1017.38 1341.92,-924.15 1419.5,-884.25 1818.73,-678.93 2395.92,-820.29 2569.58,-870.5"/>
<polygon fill="#757575" stroke="#757575" points="2568.37,-874.09 2578.95,-873.53 2570.33,-867.37 2568.37,-874.09"/>
</g>
<!-- core/cache/const.ts -->
<g id="node10" class="node">
<title>core/cache/const.ts</title>
<path fill="none" stroke="#cfffac" d="M1635.46,-1075.5C1635.46,-1075.5 1512.04,-1075.5 1512.04,-1075.5 1507.96,-1075.5 1503.88,-1071.42 1503.88,-1067.33 1503.88,-1067.33 1503.88,-1059.17 1503.88,-1059.17 1503.88,-1055.08 1507.96,-1051 1512.04,-1051 1512.04,-1051 1635.46,-1051 1635.46,-1051 1639.54,-1051 1643.62,-1055.08 1643.62,-1059.17 1643.62,-1059.17 1643.62,-1067.33 1643.62,-1067.33 1643.62,-1071.42 1639.54,-1075.5 1635.46,-1075.5"/>
<text text-anchor="middle" x="1573.75" y="-1058.2" font-family="Arial" font-size="14.00" fill="#cfffac">core/cache/const.ts</text>
</g>
<!-- core/cache/clients/lfu/SyLFUCache.ts&#45;&gt;core/cache/const.ts -->
<g id="edge11" class="edge">
<title>core/cache/clients/lfu/SyLFUCache.ts&#45;&gt;core/cache/const.ts</title>
<path fill="none" stroke="#757575" d="M1382.85,-1063.25C1419.91,-1063.25 1459.44,-1063.25 1492.79,-1063.25"/>
<polygon fill="#757575" stroke="#757575" points="1492.39,-1066.75 1502.39,-1063.25 1492.39,-1059.75 1492.39,-1066.75"/>
</g>
<!-- core/cache/clients/lfu/mixins/EvictionPolicy.ts&#45;&gt;core/logging/SyLogger.ts -->
<g id="edge19" class="edge">
<title>core/cache/clients/lfu/mixins/EvictionPolicy.ts&#45;&gt;core/logging/SyLogger.ts</title>
<path fill="none" stroke="#757575" d="M1723.78,-979.14C1957.76,-973.72 2391.27,-968.29 2454.5,-1000.25 2537.85,-1042.38 2591.35,-1147.91 2611.65,-1194.51"/>
<polygon fill="#757575" stroke="#757575" points="2608.77,-1195.68 2615.89,-1203.52 2615.22,-1192.95 2608.77,-1195.68"/>
</g>
<!-- core/cache/clients/lfu/mixins/EvictionPolicy.ts&#45;&gt;core/cache/clients/lfu/SyLFUCache.ts -->
<g id="edge16" class="edge">
<title>core/cache/clients/lfu/mixins/EvictionPolicy.ts&#45;&gt;core/cache/clients/lfu/SyLFUCache.ts</title>
<path fill="none" stroke="#757575" d="M1531.42,-995.94C1500.37,-1001.88 1456.94,-1008.9 1419.5,-1018.25 1387.04,-1026.36 1351.71,-1037.79 1322.33,-1047.29"/>
<polygon fill="#757575" stroke="#757575" points="1321.64,-1044.15 1313.2,-1050.55 1323.79,-1050.81 1321.64,-1044.15"/>
</g>
<!-- core/cache/clients/lfu/mixins/EvictionPolicy.ts&#45;&gt;core/cache/clients/lfu/mixins/FrequencyManager.ts -->
<g id="edge17" class="edge">
<title>core/cache/clients/lfu/mixins/EvictionPolicy.ts&#45;&gt;core/cache/clients/lfu/mixins/FrequencyManager.ts</title>
<path fill="none" stroke="#757575" d="M1687.94,-970.6C1701.74,-967.16 1715.4,-962.79 1728,-957.25 1746.55,-949.09 1746.35,-939.22 1764,-929.25 1799.94,-908.93 1843.61,-892.38 1877.13,-881.21"/>
<polygon fill="#757575" stroke="#757575" points="1877.78,-884.35 1886.19,-877.91 1875.6,-877.7 1877.78,-884.35"/>
</g>
<!-- core/cache/clients/lfu/mixins/EvictionPolicy.ts&#45;&gt;core/cache/clients/lfu/mixins/ListItem.ts -->
<g id="edge18" class="edge">
<title>core/cache/clients/lfu/mixins/EvictionPolicy.ts&#45;&gt;core/cache/clients/lfu/mixins/ListItem.ts</title>
<path fill="none" stroke="#757575" d="M1712.05,-970.52C1911.13,-952.06 2278.09,-918.03 2479.46,-899.36"/>
<polygon fill="#757575" stroke="#757575" points="2479.77,-902.76 2489.41,-898.35 2479.12,-895.79 2479.77,-902.76"/>
</g>
<!-- core/cache/clients/lfu/mixins/FrequencyManager.ts&#45;&gt;core/logging/SyLogger.ts -->
<g id="edge22" class="edge">
<title>core/cache/clients/lfu/mixins/FrequencyManager.ts&#45;&gt;core/logging/SyLogger.ts</title>
<path fill="none" stroke="#757575" d="M2098.45,-855.86C2228.88,-851.7 2397.5,-854.37 2454.5,-891.25 2565.01,-962.76 2605.61,-1131.99 2617.08,-1193.98"/>
<polygon fill="#757575" stroke="#757575" points="2613.77,-1194.33 2618.95,-1203.57 2620.66,-1193.12 2613.77,-1194.33"/>
</g>
<!-- core/cache/clients/lfu/mixins/FrequencyManager.ts&#45;&gt;core/cache/clients/lfu/mixins/ListItem.ts -->
<g id="edge21" class="edge">
<title>core/cache/clients/lfu/mixins/FrequencyManager.ts&#45;&gt;core/cache/clients/lfu/mixins/ListItem.ts</title>
<path fill="none" stroke="#757575" d="M2077.63,-852.52C2182.63,-845.62 2327.63,-840.79 2454.5,-853.25 2489.63,-856.7 2528.34,-864.15 2559.57,-871.11"/>
<polygon fill="#757575" stroke="#757575" points="2558.76,-874.74 2569.29,-873.54 2560.31,-867.91 2558.76,-874.74"/>
</g>
<!-- core/cache/clients/lfu/mixins/DoublyLinkedList.ts -->
<g id="node11" class="node">
<title>core/cache/clients/lfu/mixins/DoublyLinkedList.ts</title>
<path fill="none" stroke="#c6c5fe" d="M2446.33,-763.5C2446.33,-763.5 2142.17,-763.5 2142.17,-763.5 2138.08,-763.5 2134,-759.42 2134,-755.33 2134,-755.33 2134,-747.17 2134,-747.17 2134,-743.08 2138.08,-739 2142.17,-739 2142.17,-739 2446.33,-739 2446.33,-739 2450.42,-739 2454.5,-743.08 2454.5,-747.17 2454.5,-747.17 2454.5,-755.33 2454.5,-755.33 2454.5,-759.42 2450.42,-763.5 2446.33,-763.5"/>
<text text-anchor="middle" x="2294.25" y="-746.2" font-family="Arial" font-size="14.00" fill="#c6c5fe">core/cache/clients/lfu/mixins/DoublyLinkedList.ts</text>
</g>
<!-- core/cache/clients/lfu/mixins/FrequencyManager.ts&#45;&gt;core/cache/clients/lfu/mixins/DoublyLinkedList.ts -->
<g id="edge20" class="edge">
<title>core/cache/clients/lfu/mixins/FrequencyManager.ts&#45;&gt;core/cache/clients/lfu/mixins/DoublyLinkedList.ts</title>
<path fill="none" stroke="#757575" d="M1972.39,-852.5C2038.72,-831.57 2170.58,-789.96 2242.9,-767.14"/>
<polygon fill="#757575" stroke="#757575" points="2243.64,-770.26 2252.12,-763.91 2241.53,-763.59 2243.64,-770.26"/>
</g>
<!-- core/cache/clients/lfu/mixins/LFUOperations.ts&#45;&gt;core/cache/clients/lfu/SyLFUCache.ts -->
<g id="edge23" class="edge">
<title>core/cache/clients/lfu/mixins/LFUOperations.ts&#45;&gt;core/cache/clients/lfu/SyLFUCache.ts</title>
<path fill="none" stroke="#757575" d="M1430.02,-1093.52C1392.48,-1088.54 1353.79,-1082.89 1322.56,-1077.74"/>
<polygon fill="#757575" stroke="#757575" points="1323.29,-1074.15 1312.85,-1075.95 1322.13,-1081.05 1323.29,-1074.15"/>
</g>
<!-- core/messages/services/cache.ts -->
<g id="node13" class="node">
<title>core/messages/services/cache.ts</title>
<path fill="none" stroke="#c6c5fe" d="M2037.33,-1033.5C2037.33,-1033.5 1824.67,-1033.5 1824.67,-1033.5 1820.58,-1033.5 1816.5,-1029.42 1816.5,-1025.33 1816.5,-1025.33 1816.5,-1017.17 1816.5,-1017.17 1816.5,-1013.08 1820.58,-1009 1824.67,-1009 1824.67,-1009 2037.33,-1009 2037.33,-1009 2041.42,-1009 2045.5,-1013.08 2045.5,-1017.17 2045.5,-1017.17 2045.5,-1025.33 2045.5,-1025.33 2045.5,-1029.42 2041.42,-1033.5 2037.33,-1033.5"/>
<text text-anchor="middle" x="1931" y="-1016.2" font-family="Arial" font-size="14.00" fill="#c6c5fe">core/messages/services/cache.ts</text>
</g>
<!-- core/cache/clients/lfu/mixins/LFUOperations.ts&#45;&gt;core/messages/services/cache.ts -->
<g id="edge24" class="edge">
<title>core/cache/clients/lfu/mixins/LFUOperations.ts&#45;&gt;core/messages/services/cache.ts</title>
<path fill="none" stroke="#757575" d="M1679.03,-1093.57C1695.5,-1090.91 1712.27,-1087.81 1728,-1084.25 1782.93,-1071.83 1844.51,-1051.69 1885.08,-1037.53"/>
<polygon fill="#757575" stroke="#757575" points="1886.16,-1040.51 1894.43,-1033.89 1883.83,-1033.91 1886.16,-1040.51"/>
</g>
<!-- core/cache/clients/lfu/mixins/ListItem.ts&#45;&gt;core/cache/types.ts -->
<g id="edge25" class="edge">
<title>core/cache/clients/lfu/mixins/ListItem.ts&#45;&gt;core/cache/types.ts</title>
<path fill="none" stroke="#757575" d="M2613.65,-898.61C2591.78,-928.71 2523.49,-1004.13 2454.5,-1051.25 2424.73,-1071.59 2388.67,-1089.29 2358.4,-1101.6"/>
<polygon fill="#757575" stroke="#757575" points="2357.38,-1098.64 2349.37,-1105.57 2359.96,-1105.15 2357.38,-1098.64"/>
</g>
<!-- core/cache/clients/lfu/mixins/DoublyLinkedList.ts&#45;&gt;core/cache/clients/lfu/mixins/ListItem.ts -->
<g id="edge14" class="edge">
<title>core/cache/clients/lfu/mixins/DoublyLinkedList.ts&#45;&gt;core/cache/clients/lfu/mixins/ListItem.ts</title>
<path fill="none" stroke="#757575" d="M2409.47,-763.93C2424.88,-767.36 2440.27,-771.72 2454.5,-777.25 2510.74,-799.12 2567.72,-841.92 2598.23,-866.89"/>
<polygon fill="#757575" stroke="#757575" points="2595.53,-870.03 2605.46,-873.72 2600.01,-864.64 2595.53,-870.03"/>
</g>
<!-- core/emitter/Emitter.ts -->
<g id="node12" class="node">
<title>core/emitter/Emitter.ts</title>
<path fill="none" stroke="#c6c5fe" d="M2691.46,-743.5C2691.46,-743.5 2552.29,-743.5 2552.29,-743.5 2548.21,-743.5 2544.12,-739.42 2544.12,-735.33 2544.12,-735.33 2544.12,-727.17 2544.12,-727.17 2544.12,-723.08 2548.21,-719 2552.29,-719 2552.29,-719 2691.46,-719 2691.46,-719 2695.54,-719 2699.62,-723.08 2699.62,-727.17 2699.62,-727.17 2699.62,-735.33 2699.62,-735.33 2699.62,-739.42 2695.54,-743.5 2691.46,-743.5"/>
<text text-anchor="middle" x="2621.88" y="-726.2" font-family="Arial" font-size="14.00" fill="#c6c5fe">core/emitter/Emitter.ts</text>
</g>
<!-- core/cache/clients/lfu/mixins/DoublyLinkedList.ts&#45;&gt;core/emitter/Emitter.ts -->
<g id="edge15" class="edge">
<title>core/cache/clients/lfu/mixins/DoublyLinkedList.ts&#45;&gt;core/emitter/Emitter.ts</title>
<path fill="none" stroke="#757575" d="M2454.72,-741.46C2481.69,-739.8 2508.79,-738.13 2533.04,-736.65"/>
<polygon fill="#757575" stroke="#757575" points="2533.2,-740.08 2542.97,-735.97 2532.77,-733.09 2533.2,-740.08"/>
</g>
<!-- core/emitter/types.ts -->
<g id="node18" class="node">
<title>core/emitter/types.ts</title>
<path fill="none" stroke="#cfffac" d="M2935.46,-743.5C2935.46,-743.5 2806.79,-743.5 2806.79,-743.5 2802.71,-743.5 2798.62,-739.42 2798.62,-735.33 2798.62,-735.33 2798.62,-727.17 2798.62,-727.17 2798.62,-723.08 2802.71,-719 2806.79,-719 2806.79,-719 2935.46,-719 2935.46,-719 2939.54,-719 2943.62,-723.08 2943.62,-727.17 2943.62,-727.17 2943.62,-735.33 2943.62,-735.33 2943.62,-739.42 2939.54,-743.5 2935.46,-743.5"/>
<text text-anchor="middle" x="2871.12" y="-726.2" font-family="Arial" font-size="14.00" fill="#cfffac">core/emitter/types.ts</text>
</g>
<!-- core/emitter/Emitter.ts&#45;&gt;core/emitter/types.ts -->
<g id="edge34" class="edge">
<title>core/emitter/Emitter.ts&#45;&gt;core/emitter/types.ts</title>
<path fill="none" stroke="#757575" d="M2700.09,-731.25C2727.86,-731.25 2759.28,-731.25 2787.49,-731.25"/>
<polygon fill="#757575" stroke="#757575" points="2787.13,-734.75 2797.13,-731.25 2787.13,-727.75 2787.13,-734.75"/>
</g>
<!-- core/messages/base.ts -->
<g id="node23" class="node">
<title>core/messages/base.ts</title>
<path fill="none" stroke="#cfffac" d="M2368.71,-1033.5C2368.71,-1033.5 2219.79,-1033.5 2219.79,-1033.5 2215.71,-1033.5 2211.62,-1029.42 2211.62,-1025.33 2211.62,-1025.33 2211.62,-1017.17 2211.62,-1017.17 2211.62,-1013.08 2215.71,-1009 2219.79,-1009 2219.79,-1009 2368.71,-1009 2368.71,-1009 2372.79,-1009 2376.88,-1013.08 2376.88,-1017.17 2376.88,-1017.17 2376.88,-1025.33 2376.88,-1025.33 2376.88,-1029.42 2372.79,-1033.5 2368.71,-1033.5"/>
<text text-anchor="middle" x="2294.25" y="-1016.2" font-family="Arial" font-size="14.00" fill="#cfffac">core/messages/base.ts</text>
</g>
<!-- core/messages/services/cache.ts&#45;&gt;core/messages/base.ts -->
<g id="edge41" class="edge">
<title>core/messages/services/cache.ts&#45;&gt;core/messages/base.ts</title>
<path fill="none" stroke="#757575" d="M2045.81,-1021.25C2095.6,-1021.25 2153.27,-1021.25 2200.41,-1021.25"/>
<polygon fill="#757575" stroke="#757575" points="2200.22,-1024.75 2210.22,-1021.25 2200.22,-1017.75 2200.22,-1024.75"/>
</g>
<!-- core/cache/clients/lru/SyLRUCache.ts -->
<g id="node14" class="node">
<title>core/cache/clients/lru/SyLRUCache.ts</title>
<path fill="none" stroke="#c6c5fe" d="M1375.33,-1198.5C1375.33,-1198.5 1137.17,-1198.5 1137.17,-1198.5 1133.08,-1198.5 1129,-1194.42 1129,-1190.33 1129,-1190.33 1129,-1182.17 1129,-1182.17 1129,-1178.08 1133.08,-1174 1137.17,-1174 1137.17,-1174 1375.33,-1174 1375.33,-1174 1379.42,-1174 1383.5,-1178.08 1383.5,-1182.17 1383.5,-1182.17 1383.5,-1190.33 1383.5,-1190.33 1383.5,-1194.42 1379.42,-1198.5 1375.33,-1198.5"/>
<text text-anchor="middle" x="1256.25" y="-1181.2" font-family="Arial" font-size="14.00" fill="#c6c5fe">core/cache/clients/lru/SyLRUCache.ts</text>
</g>
<!-- core/cache/clients/lru/SyLRUCache.ts&#45;&gt;core/cache/base/SyBaseCache.ts -->
<g id="edge26" class="edge">
<title>core/cache/clients/lru/SyLRUCache.ts&#45;&gt;core/cache/base/SyBaseCache.ts</title>
<path fill="none" stroke="#757575" d="M1383.76,-1186.25C1404.56,-1186.25 1426.12,-1186.25 1446.91,-1186.25"/>
<polygon fill="#757575" stroke="#757575" points="1446.7,-1189.75 1456.7,-1186.25 1446.7,-1182.75 1446.7,-1189.75"/>
</g>
<!-- core/cache/clients/lru/SyLRUCache.ts&#45;&gt;core/cache/types.ts -->
<g id="edge27" class="edge">
<title>core/cache/clients/lru/SyLRUCache.ts&#45;&gt;core/cache/types.ts</title>
<path fill="none" stroke="#757575" d="M1354.18,-1173.54C1375.68,-1170.77 1398.36,-1167.88 1419.5,-1165.25 1496.01,-1155.75 1687.07,-1129.25 1764,-1124.25 1923.19,-1113.9 2109.87,-1114.83 2213.54,-1116.5"/>
<polygon fill="#757575" stroke="#757575" points="2213.17,-1120.01 2223.23,-1116.68 2213.29,-1113.01 2213.17,-1120.01"/>
</g>
<!-- core/cache/clients/lru/SyLRUCache.ts&#45;&gt;core/logging/SyLogger.ts -->
<g id="edge28" class="edge">
<title>core/cache/clients/lru/SyLRUCache.ts&#45;&gt;core/logging/SyLogger.ts</title>
<path fill="none" stroke="#757575" d="M1288.06,-1198.95C1320.25,-1211.64 1372.54,-1230.6 1419.5,-1240.25 1644.88,-1286.56 2227.04,-1303.97 2454.5,-1269.25 2498.5,-1262.53 2546.86,-1246.37 2580.05,-1233.83"/>
<polygon fill="#757575" stroke="#757575" points="2581.18,-1236.76 2589.26,-1229.9 2578.67,-1230.23 2581.18,-1236.76"/>
</g>
<!-- core/database/SyDatabase.ts -->
<g id="node15" class="node">
<title>core/database/SyDatabase.ts</title>
<path fill="none" stroke="#c6c5fe" d="M1349.46,-1305.5C1349.46,-1305.5 1163.04,-1305.5 1163.04,-1305.5 1158.96,-1305.5 1154.88,-1301.42 1154.88,-1297.33 1154.88,-1297.33 1154.88,-1289.17 1154.88,-1289.17 1154.88,-1285.08 1158.96,-1281 1163.04,-1281 1163.04,-1281 1349.46,-1281 1349.46,-1281 1353.54,-1281 1357.62,-1285.08 1357.62,-1289.17 1357.62,-1289.17 1357.62,-1297.33 1357.62,-1297.33 1357.62,-1301.42 1353.54,-1305.5 1349.46,-1305.5"/>
<text text-anchor="middle" x="1256.25" y="-1288.2" font-family="Arial" font-size="14.00" fill="#c6c5fe">core/database/SyDatabase.ts</text>
</g>
<!-- core/database/SyDatabase.ts&#45;&gt;core/logging/SyLogger.ts -->
<g id="edge32" class="edge">
<title>core/database/SyDatabase.ts&#45;&gt;core/logging/SyLogger.ts</title>
<path fill="none" stroke="#757575" d="M1308.39,-1305.99C1340.14,-1313.24 1381.92,-1321.58 1419.5,-1325.25 1671.28,-1349.84 2422.05,-1300 2454.5,-1292.25 2504.49,-1280.31 2557.93,-1253.39 2590.38,-1235.26"/>
<polygon fill="#757575" stroke="#757575" points="2591.78,-1237.93 2598.75,-1229.95 2588.32,-1231.84 2591.78,-1237.93"/>
</g>
<!-- core/server/health/types.ts -->
<g id="node16" class="node">
<title>core/server/health/types.ts</title>
<path fill="none" stroke="#cfffac" d="M1656.83,-1316.5C1656.83,-1316.5 1490.67,-1316.5 1490.67,-1316.5 1486.58,-1316.5 1482.5,-1312.42 1482.5,-1308.33 1482.5,-1308.33 1482.5,-1300.17 1482.5,-1300.17 1482.5,-1296.08 1486.58,-1292 1490.67,-1292 1490.67,-1292 1656.83,-1292 1656.83,-1292 1660.92,-1292 1665,-1296.08 1665,-1300.17 1665,-1300.17 1665,-1308.33 1665,-1308.33 1665,-1312.42 1660.92,-1316.5 1656.83,-1316.5"/>
<text text-anchor="middle" x="1573.75" y="-1299.2" font-family="Arial" font-size="14.00" fill="#cfffac">core/server/health/types.ts</text>
</g>
<!-- core/database/SyDatabase.ts&#45;&gt;core/server/health/types.ts -->
<g id="edge33" class="edge">
<title>core/database/SyDatabase.ts&#45;&gt;core/server/health/types.ts</title>
<path fill="none" stroke="#757575" d="M1357.94,-1296.76C1394.22,-1298.03 1435.14,-1299.45 1471.47,-1300.72"/>
<polygon fill="#757575" stroke="#757575" points="1470.97,-1304.24 1481.08,-1301.09 1471.21,-1297.24 1470.97,-1304.24"/>
</g>
<!-- core/database/services/queries/types.ts -->
<g id="node17" class="node">
<title>core/database/services/queries/types.ts</title>
<path fill="none" stroke="#cfffac" d="M1060.83,-554.5C1060.83,-554.5 809.17,-554.5 809.17,-554.5 805.08,-554.5 801,-550.42 801,-546.33 801,-546.33 801,-538.17 801,-538.17 801,-534.08 805.08,-530 809.17,-530 809.17,-530 1060.83,-530 1060.83,-530 1064.92,-530 1069,-534.08 1069,-538.17 1069,-538.17 1069,-546.33 1069,-546.33 1069,-550.42 1064.92,-554.5 1060.83,-554.5"/>
<text text-anchor="middle" x="935" y="-537.2" font-family="Arial" font-size="14.00" fill="#cfffac">core/database/services/queries/types.ts</text>
</g>
<!-- core/logging/defaults.ts&#45;&gt;core/logging/enums.ts -->
<g id="edge38" class="edge">
<title>core/logging/defaults.ts&#45;&gt;core/logging/enums.ts</title>
<path fill="none" stroke="#757575" d="M2953.22,-1217.04C3014.63,-1216.87 3098.91,-1216.65 3161.99,-1216.48"/>
<polygon fill="#757575" stroke="#757575" points="3161.73,-1219.98 3171.72,-1216.45 3161.71,-1212.98 3161.73,-1219.98"/>
</g>
<!-- core/logging/defaults.ts&#45;&gt;core/logging/types.ts -->
<g id="edge39" class="edge">
<title>core/logging/defaults.ts&#45;&gt;core/logging/types.ts</title>
<path fill="none" stroke="#757575" d="M2934.03,-1229.97C2951.77,-1233.61 2971.25,-1237.61 2989.56,-1241.37"/>
<polygon fill="#757575" stroke="#757575" points="2988.67,-1244.97 2999.17,-1243.55 2990.08,-1238.11 2988.67,-1244.97"/>
</g>
<!-- core/logging/types.ts&#45;&gt;core/logging/enums.ts -->
<g id="edge40" class="edge">
<title>core/logging/types.ts&#45;&gt;core/logging/enums.ts</title>
<path fill="none" stroke="#757575" d="M3123.15,-1243.54C3141.29,-1239.64 3161.44,-1235.31 3180.23,-1231.27"/>
<polygon fill="#757575" stroke="#757575" points="3180.77,-1234.52 3189.81,-1229 3179.3,-1227.68 3180.77,-1234.52"/>
</g>
<!-- core/logging/objects/RequestLogObject.ts -->
<g id="node22" class="node">
<title>core/logging/objects/RequestLogObject.ts</title>
<path fill="none" stroke="#cfffac" d="M1069.08,-87.5C1069.08,-87.5 800.92,-87.5 800.92,-87.5 796.83,-87.5 792.75,-83.42 792.75,-79.33 792.75,-79.33 792.75,-71.17 792.75,-71.17 792.75,-67.08 796.83,-63 800.92,-63 800.92,-63 1069.08,-63 1069.08,-63 1073.17,-63 1077.25,-67.08 1077.25,-71.17 1077.25,-71.17 1077.25,-79.33 1077.25,-79.33 1077.25,-83.42 1073.17,-87.5 1069.08,-87.5"/>
<text text-anchor="middle" x="935" y="-70.2" font-family="Arial" font-size="14.00" fill="#cfffac">core/logging/objects/RequestLogObject.ts</text>
</g>
<!-- core/models/general/Session.ts -->
<g id="node24" class="node">
<title>core/models/general/Session.ts</title>
<path fill="none" stroke="#cfffac" d="M1035.33,-1159.5C1035.33,-1159.5 834.67,-1159.5 834.67,-1159.5 830.58,-1159.5 826.5,-1155.42 826.5,-1151.33 826.5,-1151.33 826.5,-1143.17 826.5,-1143.17 826.5,-1139.08 830.58,-1135 834.67,-1135 834.67,-1135 1035.33,-1135 1035.33,-1135 1039.42,-1135 1043.5,-1139.08 1043.5,-1143.17 1043.5,-1143.17 1043.5,-1151.33 1043.5,-1151.33 1043.5,-1155.42 1039.42,-1159.5 1035.33,-1159.5"/>
<text text-anchor="middle" x="935" y="-1142.2" font-family="Arial" font-size="14.00" fill="#cfffac">core/models/general/Session.ts</text>
</g>
<!-- core/models/logging/Audit.ts -->
<g id="node25" class="node">
<title>core/models/logging/Audit.ts</title>
<path fill="none" stroke="#cfffac" d="M1025.21,-640.5C1025.21,-640.5 844.79,-640.5 844.79,-640.5 840.71,-640.5 836.62,-636.42 836.62,-632.33 836.62,-632.33 836.62,-624.17 836.62,-624.17 836.62,-620.08 840.71,-616 844.79,-616 844.79,-616 1025.21,-616 1025.21,-616 1029.29,-616 1033.38,-620.08 1033.38,-624.17 1033.38,-624.17 1033.38,-632.33 1033.38,-632.33 1033.38,-636.42 1029.29,-640.5 1025.21,-640.5"/>
<text text-anchor="middle" x="935" y="-623.2" font-family="Arial" font-size="14.00" fill="#cfffac">core/models/logging/Audit.ts</text>
</g>
<!-- core/monitoring/anomaly/AnomlyDetector.ts -->
<g id="node26" class="node">
<title>core/monitoring/anomaly/AnomlyDetector.ts</title>
<path fill="none" stroke="#c6c5fe" d="M1072.46,-1452.5C1072.46,-1452.5 797.54,-1452.5 797.54,-1452.5 793.46,-1452.5 789.38,-1448.42 789.38,-1444.33 789.38,-1444.33 789.38,-1436.17 789.38,-1436.17 789.38,-1432.08 793.46,-1428 797.54,-1428 797.54,-1428 1072.46,-1428 1072.46,-1428 1076.54,-1428 1080.62,-1432.08 1080.62,-1436.17 1080.62,-1436.17 1080.62,-1444.33 1080.62,-1444.33 1080.62,-1448.42 1076.54,-1452.5 1072.46,-1452.5"/>
<text text-anchor="middle" x="935" y="-1435.2" font-family="Arial" font-size="14.00" fill="#c6c5fe">core/monitoring/anomaly/AnomlyDetector.ts</text>
</g>
<!-- core/monitoring/anomaly/AnomlyDetector.ts&#45;&gt;core/logging/SyLogger.ts -->
<g id="edge42" class="edge">
<title>core/monitoring/anomaly/AnomlyDetector.ts&#45;&gt;core/logging/SyLogger.ts</title>
<path fill="none" stroke="#757575" d="M1081.06,-1433.1C1210.09,-1427.36 1403.94,-1420.25 1572.75,-1420.25 1572.75,-1420.25 1572.75,-1420.25 1932,-1420.25 2165.6,-1420.25 2240.68,-1457.32 2454.5,-1363.25 2519.45,-1334.68 2577.26,-1271.37 2604.44,-1238.3"/>
<polygon fill="#757575" stroke="#757575" points="2607.72,-1240.81 2611.27,-1230.83 2602.27,-1236.41 2607.72,-1240.81"/>
</g>
<!-- core/monitoring/anomaly/const.ts -->
<g id="node27" class="node">
<title>core/monitoring/anomaly/const.ts</title>
<path fill="none" stroke="#cfffac" d="M1359.96,-1515.5C1359.96,-1515.5 1152.54,-1515.5 1152.54,-1515.5 1148.46,-1515.5 1144.38,-1511.42 1144.38,-1507.33 1144.38,-1507.33 1144.38,-1499.17 1144.38,-1499.17 1144.38,-1495.08 1148.46,-1491 1152.54,-1491 1152.54,-1491 1359.96,-1491 1359.96,-1491 1364.04,-1491 1368.12,-1495.08 1368.12,-1499.17 1368.12,-1499.17 1368.12,-1507.33 1368.12,-1507.33 1368.12,-1511.42 1364.04,-1515.5 1359.96,-1515.5"/>
<text text-anchor="middle" x="1256.25" y="-1498.2" font-family="Arial" font-size="14.00" fill="#cfffac">core/monitoring/anomaly/const.ts</text>
</g>
<!-- core/monitoring/anomaly/AnomlyDetector.ts&#45;&gt;core/monitoring/anomaly/const.ts -->
<g id="edge43" class="edge">
<title>core/monitoring/anomaly/AnomlyDetector.ts&#45;&gt;core/monitoring/anomaly/const.ts</title>
<path fill="none" stroke="#757575" d="M992.89,-1452.91C1031.27,-1461.31 1083.09,-1472.38 1129,-1481.25 1141.93,-1483.75 1155.62,-1486.27 1169.05,-1488.66"/>
<polygon fill="#757575" stroke="#757575" points="1168.27,-1492.26 1178.73,-1490.56 1169.49,-1485.37 1168.27,-1492.26"/>
</g>
<!-- core/monitoring/anomaly/types.ts -->
<g id="node28" class="node">
<title>core/monitoring/anomaly/types.ts</title>
<path fill="none" stroke="#cfffac" d="M1359.96,-1472.5C1359.96,-1472.5 1152.54,-1472.5 1152.54,-1472.5 1148.46,-1472.5 1144.38,-1468.42 1144.38,-1464.33 1144.38,-1464.33 1144.38,-1456.17 1144.38,-1456.17 1144.38,-1452.08 1148.46,-1448 1152.54,-1448 1152.54,-1448 1359.96,-1448 1359.96,-1448 1364.04,-1448 1368.12,-1452.08 1368.12,-1456.17 1368.12,-1456.17 1368.12,-1464.33 1368.12,-1464.33 1368.12,-1468.42 1364.04,-1472.5 1359.96,-1472.5"/>
<text text-anchor="middle" x="1256.25" y="-1455.2" font-family="Arial" font-size="14.00" fill="#cfffac">core/monitoring/anomaly/types.ts</text>
</g>
<!-- core/monitoring/anomaly/AnomlyDetector.ts&#45;&gt;core/monitoring/anomaly/types.ts -->
<g id="edge44" class="edge">
<title>core/monitoring/anomaly/AnomlyDetector.ts&#45;&gt;core/monitoring/anomaly/types.ts</title>
<path fill="none" stroke="#757575" d="M1080.68,-1449.31C1098.3,-1450.42 1116.17,-1451.54 1133.42,-1452.62"/>
<polygon fill="#757575" stroke="#757575" points="1132.87,-1456.15 1143.07,-1453.28 1133.31,-1449.17 1132.87,-1456.15"/>
</g>
<!-- core/reports/access/AccessReportGenerator.ts -->
<g id="node29" class="node">
<title>core/reports/access/AccessReportGenerator.ts</title>
<path fill="none" stroke="#c6c5fe" d="M426.21,-683.5C426.21,-683.5 125.79,-683.5 125.79,-683.5 121.71,-683.5 117.62,-679.42 117.62,-675.33 117.62,-675.33 117.62,-667.17 117.62,-667.17 117.62,-663.08 121.71,-659 125.79,-659 125.79,-659 426.21,-659 426.21,-659 430.29,-659 434.38,-663.08 434.38,-667.17 434.38,-667.17 434.38,-675.33 434.38,-675.33 434.38,-679.42 430.29,-683.5 426.21,-683.5"/>
<text text-anchor="middle" x="276" y="-666.2" font-family="Arial" font-size="14.00" fill="#c6c5fe">core/reports/access/AccessReportGenerator.ts</text>
</g>
<!-- core/reports/access/types.ts -->
<g id="node30" class="node">
<title>core/reports/access/types.ts</title>
<path fill="none" stroke="#cfffac" d="M697.58,-683.5C697.58,-683.5 517.92,-683.5 517.92,-683.5 513.83,-683.5 509.75,-679.42 509.75,-675.33 509.75,-675.33 509.75,-667.17 509.75,-667.17 509.75,-663.08 513.83,-659 517.92,-659 517.92,-659 697.58,-659 697.58,-659 701.67,-659 705.75,-663.08 705.75,-667.17 705.75,-667.17 705.75,-675.33 705.75,-675.33 705.75,-679.42 701.67,-683.5 697.58,-683.5"/>
<text text-anchor="middle" x="607.75" y="-666.2" font-family="Arial" font-size="14.00" fill="#cfffac">core/reports/access/types.ts</text>
</g>
<!-- core/reports/access/AccessReportGenerator.ts&#45;&gt;core/reports/access/types.ts -->
<g id="edge45" class="edge">
<title>core/reports/access/AccessReportGenerator.ts&#45;&gt;core/reports/access/types.ts</title>
<path fill="none" stroke="#757575" d="M434.63,-671.25C456.25,-671.25 478.03,-671.25 498.49,-671.25"/>
<polygon fill="#757575" stroke="#757575" points="498.38,-674.75 508.38,-671.25 498.38,-667.75 498.38,-674.75"/>
</g>
<!-- core/reports/audit/AuditReportGenerator.ts -->
<g id="node31" class="node">
<title>core/reports/audit/AuditReportGenerator.ts</title>
<path fill="none" stroke="#c6c5fe" d="M410.46,-640.5C410.46,-640.5 141.54,-640.5 141.54,-640.5 137.46,-640.5 133.38,-636.42 133.38,-632.33 133.38,-632.33 133.38,-624.17 133.38,-624.17 133.38,-620.08 137.46,-616 141.54,-616 141.54,-616 410.46,-616 410.46,-616 414.54,-616 418.62,-620.08 418.62,-624.17 418.62,-624.17 418.62,-632.33 418.62,-632.33 418.62,-636.42 414.54,-640.5 410.46,-640.5"/>
<text text-anchor="middle" x="276" y="-623.2" font-family="Arial" font-size="14.00" fill="#c6c5fe">core/reports/audit/AuditReportGenerator.ts</text>
</g>
<!-- core/reports/audit/types.ts -->
<g id="node32" class="node">
<title>core/reports/audit/types.ts</title>
<path fill="none" stroke="#c6c5fe" d="M689.71,-640.5C689.71,-640.5 525.79,-640.5 525.79,-640.5 521.71,-640.5 517.62,-636.42 517.62,-632.33 517.62,-632.33 517.62,-624.17 517.62,-624.17 517.62,-620.08 521.71,-616 525.79,-616 525.79,-616 689.71,-616 689.71,-616 693.79,-616 697.88,-620.08 697.88,-624.17 697.88,-624.17 697.88,-632.33 697.88,-632.33 697.88,-636.42 693.79,-640.5 689.71,-640.5"/>
<text text-anchor="middle" x="607.75" y="-623.2" font-family="Arial" font-size="14.00" fill="#c6c5fe">core/reports/audit/types.ts</text>
</g>
<!-- core/reports/audit/AuditReportGenerator.ts&#45;&gt;core/reports/audit/types.ts -->
<g id="edge46" class="edge">
<title>core/reports/audit/AuditReportGenerator.ts&#45;&gt;core/reports/audit/types.ts</title>
<path fill="none" stroke="#757575" d="M418.76,-628.25C448.34,-628.25 478.95,-628.25 506.65,-628.25"/>
<polygon fill="#757575" stroke="#757575" points="506.51,-631.75 516.51,-628.25 506.51,-624.75 506.51,-631.75"/>
</g>
<!-- core/reports/audit/types.ts&#45;&gt;core/models/logging/Audit.ts -->
<g id="edge47" class="edge">
<title>core/reports/audit/types.ts&#45;&gt;core/models/logging/Audit.ts</title>
<path fill="none" stroke="#757575" d="M698.06,-628.25C737.42,-628.25 784.02,-628.25 825.38,-628.25"/>
<polygon fill="#757575" stroke="#757575" points="825.33,-631.75 835.33,-628.25 825.33,-624.75 825.33,-631.75"/>
</g>
<!-- core/reports/error/ErrorReportGenerator.ts -->
<g id="node33" class="node">
<title>core/reports/error/ErrorReportGenerator.ts</title>
<path fill="none" stroke="#c6c5fe" d="M410.08,-597.5C410.08,-597.5 141.92,-597.5 141.92,-597.5 137.83,-597.5 133.75,-593.42 133.75,-589.33 133.75,-589.33 133.75,-581.17 133.75,-581.17 133.75,-577.08 137.83,-573 141.92,-573 141.92,-573 410.08,-573 410.08,-573 414.17,-573 418.25,-577.08 418.25,-581.17 418.25,-581.17 418.25,-589.33 418.25,-589.33 418.25,-593.42 414.17,-597.5 410.08,-597.5"/>
<text text-anchor="middle" x="276" y="-580.2" font-family="Arial" font-size="14.00" fill="#c6c5fe">core/reports/error/ErrorReportGenerator.ts</text>
</g>
<!-- core/reports/error/types.ts -->
<g id="node34" class="node">
<title>core/reports/error/types.ts</title>
<path fill="none" stroke="#c6c5fe" d="M689.71,-597.5C689.71,-597.5 525.79,-597.5 525.79,-597.5 521.71,-597.5 517.62,-593.42 517.62,-589.33 517.62,-589.33 517.62,-581.17 517.62,-581.17 517.62,-577.08 521.71,-573 525.79,-573 525.79,-573 689.71,-573 689.71,-573 693.79,-573 697.88,-577.08 697.88,-581.17 697.88,-581.17 697.88,-589.33 697.88,-589.33 697.88,-593.42 693.79,-597.5 689.71,-597.5"/>
<text text-anchor="middle" x="607.75" y="-580.2" font-family="Arial" font-size="14.00" fill="#c6c5fe">core/reports/error/types.ts</text>
</g>
<!-- core/reports/error/ErrorReportGenerator.ts&#45;&gt;core/reports/error/types.ts -->
<g id="edge48" class="edge">
<title>core/reports/error/ErrorReportGenerator.ts&#45;&gt;core/reports/error/types.ts</title>
<path fill="none" stroke="#757575" d="M418.28,-585.25C447.91,-585.25 478.58,-585.25 506.35,-585.25"/>
<polygon fill="#757575" stroke="#757575" points="506.24,-588.75 516.24,-585.25 506.24,-581.75 506.24,-588.75"/>
</g>
<!-- core/reports/error/enums.ts -->
<g id="node35" class="node">
<title>core/reports/error/enums.ts</title>
<path fill="none" stroke="#cfffac" d="M1021.08,-597.5C1021.08,-597.5 848.92,-597.5 848.92,-597.5 844.83,-597.5 840.75,-593.42 840.75,-589.33 840.75,-589.33 840.75,-581.17 840.75,-581.17 840.75,-577.08 844.83,-573 848.92,-573 848.92,-573 1021.08,-573 1021.08,-573 1025.17,-573 1029.25,-577.08 1029.25,-581.17 1029.25,-581.17 1029.25,-589.33 1029.25,-589.33 1029.25,-593.42 1025.17,-597.5 1021.08,-597.5"/>
<text text-anchor="middle" x="935" y="-580.2" font-family="Arial" font-size="14.00" fill="#cfffac">core/reports/error/enums.ts</text>
</g>
<!-- core/reports/error/types.ts&#45;&gt;core/reports/error/enums.ts -->
<g id="edge49" class="edge">
<title>core/reports/error/types.ts&#45;&gt;core/reports/error/enums.ts</title>
<path fill="none" stroke="#757575" d="M698.06,-585.25C738.71,-585.25 787.1,-585.25 829.44,-585.25"/>
<polygon fill="#757575" stroke="#757575" points="829.35,-588.75 839.35,-585.25 829.35,-581.75 829.35,-588.75"/>
</g>
<!-- core/reports/query/QueryReportGenerator.ts -->
<g id="node36" class="node">
<title>core/reports/query/QueryReportGenerator.ts</title>
<path fill="none" stroke="#c6c5fe" d="M416.08,-554.5C416.08,-554.5 135.92,-554.5 135.92,-554.5 131.83,-554.5 127.75,-550.42 127.75,-546.33 127.75,-546.33 127.75,-538.17 127.75,-538.17 127.75,-534.08 131.83,-530 135.92,-530 135.92,-530 416.08,-530 416.08,-530 420.17,-530 424.25,-534.08 424.25,-538.17 424.25,-538.17 424.25,-546.33 424.25,-546.33 424.25,-550.42 420.17,-554.5 416.08,-554.5"/>
<text text-anchor="middle" x="276" y="-537.2" font-family="Arial" font-size="14.00" fill="#c6c5fe">core/reports/query/QueryReportGenerator.ts</text>
</g>
<!-- core/reports/query/types.ts -->
<g id="node37" class="node">
<title>core/reports/query/types.ts</title>
<path fill="none" stroke="#c6c5fe" d="M692.33,-554.5C692.33,-554.5 523.17,-554.5 523.17,-554.5 519.08,-554.5 515,-550.42 515,-546.33 515,-546.33 515,-538.17 515,-538.17 515,-534.08 519.08,-530 523.17,-530 523.17,-530 692.33,-530 692.33,-530 696.42,-530 700.5,-534.08 700.5,-538.17 700.5,-538.17 700.5,-546.33 700.5,-546.33 700.5,-550.42 696.42,-554.5 692.33,-554.5"/>
<text text-anchor="middle" x="607.75" y="-537.2" font-family="Arial" font-size="14.00" fill="#c6c5fe">core/reports/query/types.ts</text>
</g>
<!-- core/reports/query/QueryReportGenerator.ts&#45;&gt;core/reports/query/types.ts -->
<g id="edge50" class="edge">
<title>core/reports/query/QueryReportGenerator.ts&#45;&gt;core/reports/query/types.ts</title>
<path fill="none" stroke="#757575" d="M424.51,-542.25C451.25,-542.25 478.61,-542.25 503.72,-542.25"/>
<polygon fill="#757575" stroke="#757575" points="503.71,-545.75 513.71,-542.25 503.71,-538.75 503.71,-545.75"/>
</g>
<!-- core/structures/BinaryHeap/BinaryHeap.ts -->
<g id="node38" class="node">
<title>core/structures/BinaryHeap/BinaryHeap.ts</title>
<path fill="none" stroke="#cfffac" d="M1066.08,-492.5C1066.08,-492.5 803.92,-492.5 803.92,-492.5 799.83,-492.5 795.75,-488.42 795.75,-484.33 795.75,-484.33 795.75,-476.17 795.75,-476.17 795.75,-472.08 799.83,-468 803.92,-468 803.92,-468 1066.08,-468 1066.08,-468 1070.17,-468 1074.25,-472.08 1074.25,-476.17 1074.25,-476.17 1074.25,-484.33 1074.25,-484.33 1074.25,-488.42 1070.17,-492.5 1066.08,-492.5"/>
<text text-anchor="middle" x="935" y="-475.2" font-family="Arial" font-size="14.00" fill="#cfffac">core/structures/BinaryHeap/BinaryHeap.ts</text>
</g>
<!-- core/reports/query/QueryReportGenerator.ts&#45;&gt;core/structures/BinaryHeap/BinaryHeap.ts -->
<g id="edge51" class="edge">
<title>core/reports/query/QueryReportGenerator.ts&#45;&gt;core/structures/BinaryHeap/BinaryHeap.ts</title>
<path fill="none" stroke="#757575" d="M393.67,-529.51C420.23,-526.71 448.33,-523.81 474.5,-521.25 578,-511.13 694.72,-500.73 784.62,-492.93"/>
<polygon fill="#757575" stroke="#757575" points="784.79,-496.35 794.45,-492 784.19,-489.37 784.79,-496.35"/>
</g>
<!-- core/reports/query/types.ts&#45;&gt;core/database/services/queries/types.ts -->
<g id="edge52" class="edge">
<title>core/reports/query/types.ts&#45;&gt;core/database/services/queries/types.ts</title>
<path fill="none" stroke="#757575" d="M700.65,-542.25C728.46,-542.25 759.7,-542.25 790.06,-542.25"/>
<polygon fill="#757575" stroke="#757575" points="789.75,-545.75 799.75,-542.25 789.75,-538.75 789.75,-545.75"/>
</g>
<!-- core/reports/request/RequestReportGenerator.ts -->
<g id="node39" class="node">
<title>core/reports/request/RequestReportGenerator.ts</title>
<path fill="none" stroke="#c6c5fe" d="M430.33,-174.5C430.33,-174.5 121.67,-174.5 121.67,-174.5 117.58,-174.5 113.5,-170.42 113.5,-166.33 113.5,-166.33 113.5,-158.17 113.5,-158.17 113.5,-154.08 117.58,-150 121.67,-150 121.67,-150 430.33,-150 430.33,-150 434.42,-150 438.5,-154.08 438.5,-158.17 438.5,-158.17 438.5,-166.33 438.5,-166.33 438.5,-170.42 434.42,-174.5 430.33,-174.5"/>
<text text-anchor="middle" x="276" y="-157.2" font-family="Arial" font-size="14.00" fill="#c6c5fe">core/reports/request/RequestReportGenerator.ts</text>
</g>
<!-- core/reports/request/types.ts -->
<g id="node40" class="node">
<title>core/reports/request/types.ts</title>
<path fill="none" stroke="#c6c5fe" d="M698.71,-87.5C698.71,-87.5 516.79,-87.5 516.79,-87.5 512.71,-87.5 508.62,-83.42 508.62,-79.33 508.62,-79.33 508.62,-71.17 508.62,-71.17 508.62,-67.08 512.71,-63 516.79,-63 516.79,-63 698.71,-63 698.71,-63 702.79,-63 706.88,-67.08 706.88,-71.17 706.88,-71.17 706.88,-79.33 706.88,-79.33 706.88,-83.42 702.79,-87.5 698.71,-87.5"/>
<text text-anchor="middle" x="607.75" y="-70.2" font-family="Arial" font-size="14.00" fill="#c6c5fe">core/reports/request/types.ts</text>
</g>
<!-- core/reports/request/RequestReportGenerator.ts&#45;&gt;core/reports/request/types.ts -->
<g id="edge53" class="edge">
<title>core/reports/request/RequestReportGenerator.ts&#45;&gt;core/reports/request/types.ts</title>
<path fill="none" stroke="#757575" d="M310.09,-149.63C348.96,-135.21 415.61,-111.75 474.5,-97.25 485.2,-94.61 496.47,-92.2 507.74,-90.02"/>
<polygon fill="#757575" stroke="#757575" points="508.33,-93.28 517.51,-88 507.04,-86.4 508.33,-93.28"/>
</g>
<!-- core/reports/request/types.ts&#45;&gt;core/logging/objects/RequestLogObject.ts -->
<g id="edge54" class="edge">
<title>core/reports/request/types.ts&#45;&gt;core/logging/objects/RequestLogObject.ts</title>
<path fill="none" stroke="#757575" d="M707.22,-75.25C730.7,-75.25 756.3,-75.25 781.57,-75.25"/>
<polygon fill="#757575" stroke="#757575" points="781.37,-78.75 791.37,-75.25 781.37,-71.75 781.37,-78.75"/>
</g>
<!-- core/server/SyServer.ts -->
<g id="node41" class="node">
<title>core/server/SyServer.ts</title>
<path fill="none" stroke="#ff6c60" d="M350.46,-1159.5C350.46,-1159.5 201.54,-1159.5 201.54,-1159.5 197.46,-1159.5 193.38,-1155.42 193.38,-1151.33 193.38,-1151.33 193.38,-1143.17 193.38,-1143.17 193.38,-1139.08 197.46,-1135 201.54,-1135 201.54,-1135 350.46,-1135 350.46,-1135 354.54,-1135 358.62,-1139.08 358.62,-1143.17 358.62,-1143.17 358.62,-1151.33 358.62,-1151.33 358.62,-1155.42 354.54,-1159.5 350.46,-1159.5"/>
<text text-anchor="middle" x="276" y="-1142.2" font-family="Arial" font-size="14.00" fill="#ff6c60">core/server/SyServer.ts</text>
</g>
<!-- core/server/SyServer.ts&#45;&gt;core/logging/SyLogger.ts -->
<g id="edge58" class="edge">
<title>core/server/SyServer.ts&#45;&gt;core/logging/SyLogger.ts</title>
<path fill="none" stroke="#757575" d="M295.94,-1134.58C372.25,-1084.79 665.97,-905.25 934,-905.25 934,-905.25 934,-905.25 1932,-905.25 2166.12,-905.25 2255.01,-849.7 2454.5,-972.25 2541.86,-1025.92 2594.08,-1144.64 2612.89,-1194.5"/>
<polygon fill="#757575" stroke="#757575" points="2609.85,-1195.39 2616.58,-1203.57 2616.43,-1192.98 2609.85,-1195.39"/>
</g>
<!-- core/server/SyServer.ts&#45;&gt;core/cache/clients/lfu/SyLFUCache.ts -->
<g id="edge55" class="edge">
<title>core/server/SyServer.ts&#45;&gt;core/cache/clients/lfu/SyLFUCache.ts</title>
<path fill="none" stroke="#757575" d="M318.14,-1134.5C357.76,-1122.84 419.61,-1106.21 474.5,-1098.25 698.63,-1065.75 962.4,-1060.75 1118.84,-1061.21"/>
<polygon fill="#757575" stroke="#757575" points="1118.44,-1064.71 1128.45,-1061.25 1118.46,-1057.71 1118.44,-1064.71"/>
</g>
<!-- core/server/SyServer.ts&#45;&gt;core/cache/clients/lru/SyLRUCache.ts -->
<g id="edge56" class="edge">
<title>core/server/SyServer.ts&#45;&gt;core/cache/clients/lru/SyLRUCache.ts</title>
<path fill="none" stroke="#757575" d="M357.44,-1134.53C504.74,-1113.59 827.08,-1078.66 1093,-1126.25 1138.35,-1134.37 1187.61,-1154.3 1219.81,-1168.97"/>
<polygon fill="#757575" stroke="#757575" points="1218.09,-1172.5 1228.64,-1173.53 1221.04,-1166.15 1218.09,-1172.5"/>
</g>
<!-- core/server/SyServer.ts&#45;&gt;core/database/SyDatabase.ts -->
<g id="edge57" class="edge">
<title>core/server/SyServer.ts&#45;&gt;core/database/SyDatabase.ts</title>
<path fill="none" stroke="#757575" d="M295.27,-1159.93C328.91,-1182.48 403.7,-1229.02 474.5,-1248.25 706.1,-1311.14 990.09,-1308.64 1143.71,-1301.06"/>
<polygon fill="#757575" stroke="#757575" points="1143.74,-1304.51 1153.54,-1300.51 1143.38,-1297.52 1143.74,-1304.51"/>
</g>
<!-- core/server/mixins/ServerHealthMixin.ts -->
<g id="node42" class="node">
<title>core/server/mixins/ServerHealthMixin.ts</title>
<path fill="none" stroke="#ff6c60" d="M731.33,-1239.5C731.33,-1239.5 484.17,-1239.5 484.17,-1239.5 480.08,-1239.5 476,-1235.42 476,-1231.33 476,-1231.33 476,-1223.17 476,-1223.17 476,-1219.08 480.08,-1215 484.17,-1215 484.17,-1215 731.33,-1215 731.33,-1215 735.42,-1215 739.5,-1219.08 739.5,-1223.17 739.5,-1223.17 739.5,-1231.33 739.5,-1231.33 739.5,-1235.42 735.42,-1239.5 731.33,-1239.5"/>
<text text-anchor="middle" x="607.75" y="-1222.2" font-family="Arial" font-size="14.00" fill="#ff6c60">core/server/mixins/ServerHealthMixin.ts</text>
</g>
<!-- core/server/SyServer.ts&#45;&gt;core/server/mixins/ServerHealthMixin.ts -->
<g id="edge59" class="edge">
<title>core/server/SyServer.ts&#45;&gt;core/server/mixins/ServerHealthMixin.ts</title>
<path fill="none" stroke="#757575" d="M347.99,-1159.98C385.45,-1169.61 432.28,-1182.34 474.5,-1192.25 504.4,-1199.27 538.4,-1205.92 564.44,-1211.96"/>
<polygon fill="#757575" stroke="#757575" points="563.54,-1215.58 574.08,-1214.5 565.17,-1208.77 563.54,-1215.58"/>
</g>
<!-- core/server/types.ts -->
<g id="node43" class="node">
<title>core/server/types.ts</title>
<path fill="none" stroke="#c6c5fe" d="M997.46,-1203.5C997.46,-1203.5 872.54,-1203.5 872.54,-1203.5 868.46,-1203.5 864.38,-1199.42 864.38,-1195.33 864.38,-1195.33 864.38,-1187.17 864.38,-1187.17 864.38,-1183.08 868.46,-1179 872.54,-1179 872.54,-1179 997.46,-1179 997.46,-1179 1001.54,-1179 1005.62,-1183.08 1005.62,-1187.17 1005.62,-1187.17 1005.62,-1195.33 1005.62,-1195.33 1005.62,-1199.42 1001.54,-1203.5 997.46,-1203.5"/>
<text text-anchor="middle" x="935" y="-1186.2" font-family="Arial" font-size="14.00" fill="#c6c5fe">core/server/types.ts</text>
</g>
<!-- core/server/SyServer.ts&#45;&gt;core/server/types.ts -->
<g id="edge60" class="edge">
<title>core/server/SyServer.ts&#45;&gt;core/server/types.ts</title>
<path fill="none" stroke="#757575" d="M359.06,-1157.01C394.52,-1160.96 436.51,-1165.28 474.5,-1168.25 607.07,-1178.61 761.55,-1185.22 853.37,-1188.58"/>
<polygon fill="#757575" stroke="#757575" points="853.13,-1192.11 863.25,-1188.97 853.38,-1185.11 853.13,-1192.11"/>
</g>
<!-- stores/SessionStore.ts -->
<g id="node44" class="node">
<title>stores/SessionStore.ts</title>
<path fill="none" stroke="#c6c5fe" d="M679.96,-1159.5C679.96,-1159.5 535.54,-1159.5 535.54,-1159.5 531.46,-1159.5 527.38,-1155.42 527.38,-1151.33 527.38,-1151.33 527.38,-1143.17 527.38,-1143.17 527.38,-1139.08 531.46,-1135 535.54,-1135 535.54,-1135 679.96,-1135 679.96,-1135 684.04,-1135 688.12,-1139.08 688.12,-1143.17 688.12,-1143.17 688.12,-1151.33 688.12,-1151.33 688.12,-1155.42 684.04,-1159.5 679.96,-1159.5"/>
<text text-anchor="middle" x="607.75" y="-1142.2" font-family="Arial" font-size="14.00" fill="#c6c5fe">stores/SessionStore.ts</text>
</g>
<!-- core/server/SyServer.ts&#45;&gt;stores/SessionStore.ts -->
<g id="edge61" class="edge">
<title>core/server/SyServer.ts&#45;&gt;stores/SessionStore.ts</title>
<path fill="none" stroke="#757575" d="M358.93,-1147.25C406.64,-1147.25 466.86,-1147.25 516,-1147.25"/>
<polygon fill="#757575" stroke="#757575" points="515.95,-1150.75 525.95,-1147.25 515.95,-1143.75 515.95,-1150.75"/>
</g>
<!-- core/server/mixins/ServerHealthMixin.ts&#45;&gt;core/monitoring/anomaly/AnomlyDetector.ts -->
<g id="edge62" class="edge">
<title>core/server/mixins/ServerHealthMixin.ts&#45;&gt;core/monitoring/anomaly/AnomlyDetector.ts</title>
<path fill="none" stroke="#757575" d="M628.12,-1239.94C683.26,-1276.04 841.23,-1379.49 905.89,-1421.84"/>
<polygon fill="#757575" stroke="#757575" points="903.45,-1425.08 913.73,-1427.63 907.28,-1419.22 903.45,-1425.08"/>
</g>
<!-- core/server/mixins/ServerHealthMixin.ts&#45;&gt;core/server/SyServer.ts -->
<g id="edge63" class="edge">
<title>core/server/mixins/ServerHealthMixin.ts&#45;&gt;core/server/SyServer.ts</title>
<path fill="none" stroke="#757575" d="M493.37,-1214.51C486.98,-1213.12 480.65,-1211.69 474.5,-1210.25 416.45,-1196.63 349.69,-1177.67 310.55,-1163.69"/>
<polygon fill="#757575" stroke="#757575" points="311.86,-1160.08 301.27,-1159.89 309.43,-1166.64 311.86,-1160.08"/>
</g>
<!-- core/server/mixins/ServerHealthMixin.ts&#45;&gt;core/server/types.ts -->
<g id="edge64" class="edge">
<title>core/server/mixins/ServerHealthMixin.ts&#45;&gt;core/server/types.ts</title>
<path fill="none" stroke="#757575" d="M723.88,-1214.51C766.64,-1209.77 814.2,-1204.51 853.25,-1200.19"/>
<polygon fill="#757575" stroke="#757575" points="853.47,-1203.57 863.03,-1199 852.7,-1196.62 853.47,-1203.57"/>
</g>
<!-- core/server/types.ts&#45;&gt;core/logging/SyLogger.ts -->
<g id="edge68" class="edge">
<title>core/server/types.ts&#45;&gt;core/logging/SyLogger.ts</title>
<path fill="none" stroke="#757575" d="M950.82,-1203.83C981.7,-1229.3 1056.11,-1286.84 1129,-1314.25 1315.75,-1384.49 1373.23,-1382.25 1572.75,-1382.25 1572.75,-1382.25 1572.75,-1382.25 1932,-1382.25 2166.01,-1382.25 2233.3,-1393.63 2454.5,-1317.25 2509.3,-1298.33 2565.57,-1259.68 2596.6,-1236.37"/>
<polygon fill="#757575" stroke="#757575" points="2598.19,-1238.79 2604.02,-1229.94 2593.95,-1233.22 2598.19,-1238.79"/>
</g>
<!-- core/server/types.ts&#45;&gt;core/cache/clients/lfu/SyLFUCache.ts -->
<g id="edge65" class="edge">
<title>core/server/types.ts&#45;&gt;core/cache/clients/lfu/SyLFUCache.ts</title>
<path fill="none" stroke="#757575" d="M1006,-1187.45C1033.76,-1184.3 1065.54,-1178.58 1093,-1168.25 1147.36,-1147.8 1202.38,-1107 1232.32,-1082.72"/>
<polygon fill="#757575" stroke="#757575" points="1234.29,-1084.81 1239.78,-1075.75 1229.84,-1079.41 1234.29,-1084.81"/>
</g>
<!-- core/server/types.ts&#45;&gt;core/cache/clients/lru/SyLRUCache.ts -->
<g id="edge66" class="edge">
<title>core/server/types.ts&#45;&gt;core/cache/clients/lru/SyLRUCache.ts</title>
<path fill="none" stroke="#757575" d="M1006.06,-1190.15C1038.94,-1189.64 1079.33,-1189.01 1117.93,-1188.4"/>
<polygon fill="#757575" stroke="#757575" points="1117.82,-1191.89 1127.77,-1188.23 1117.71,-1184.89 1117.82,-1191.89"/>
</g>
<!-- core/server/types.ts&#45;&gt;core/database/SyDatabase.ts -->
<g id="edge67" class="edge">
<title>core/server/types.ts&#45;&gt;core/database/SyDatabase.ts</title>
<path fill="none" stroke="#757575" d="M975.79,-1203.96C1033.9,-1222.53 1141.94,-1257.05 1205.31,-1277.29"/>
<polygon fill="#757575" stroke="#757575" points="1203.87,-1280.83 1214.46,-1280.54 1206,-1274.16 1203.87,-1280.83"/>
</g>
<!-- stores/SessionStore.ts&#45;&gt;core/models/general/Session.ts -->
<g id="edge99" class="edge">
<title>stores/SessionStore.ts&#45;&gt;core/models/general/Session.ts</title>
<path fill="none" stroke="#757575" d="M688.32,-1147.25C726.46,-1147.25 772.95,-1147.25 815.17,-1147.25"/>
<polygon fill="#757575" stroke="#757575" points="815.09,-1150.75 825.09,-1147.25 815.09,-1143.75 815.09,-1150.75"/>
</g>
<!-- core/structures/BinaryHeap/check.ts -->
<g id="node45" class="node">
<title>core/structures/BinaryHeap/check.ts</title>
<path fill="none" stroke="#c6c5fe" d="M721.21,-474.5C721.21,-474.5 494.29,-474.5 494.29,-474.5 490.21,-474.5 486.12,-470.42 486.12,-466.33 486.12,-466.33 486.12,-458.17 486.12,-458.17 486.12,-454.08 490.21,-450 494.29,-450 494.29,-450 721.21,-450 721.21,-450 725.29,-450 729.38,-454.08 729.38,-458.17 729.38,-458.17 729.38,-466.33 729.38,-466.33 729.38,-470.42 725.29,-474.5 721.21,-474.5"/>
<text text-anchor="middle" x="607.75" y="-457.2" font-family="Arial" font-size="14.00" fill="#c6c5fe">core/structures/BinaryHeap/check.ts</text>
</g>
<!-- core/structures/BinaryHeap/check.ts&#45;&gt;core/structures/BinaryHeap/BinaryHeap.ts -->
<g id="edge69" class="edge">
<title>core/structures/BinaryHeap/check.ts&#45;&gt;core/structures/BinaryHeap/BinaryHeap.ts</title>
<path fill="none" stroke="#757575" d="M729.86,-468.95C747.68,-469.94 766.2,-470.96 784.51,-471.98"/>
<polygon fill="#757575" stroke="#757575" points="784.08,-475.51 794.25,-472.57 784.46,-468.52 784.08,-475.51"/>
</g>
<!-- core/structures/CircularBuffer/CircularBuffer.ts -->
<g id="node46" class="node">
<title>core/structures/CircularBuffer/CircularBuffer.ts</title>
<path fill="none" stroke="#cfffac" d="M1080.33,-173.5C1080.33,-173.5 789.67,-173.5 789.67,-173.5 785.58,-173.5 781.5,-169.42 781.5,-165.33 781.5,-165.33 781.5,-157.17 781.5,-157.17 781.5,-153.08 785.58,-149 789.67,-149 789.67,-149 1080.33,-149 1080.33,-149 1084.42,-149 1088.5,-153.08 1088.5,-157.17 1088.5,-157.17 1088.5,-165.33 1088.5,-165.33 1088.5,-169.42 1084.42,-173.5 1080.33,-173.5"/>
<text text-anchor="middle" x="935" y="-156.2" font-family="Arial" font-size="14.00" fill="#cfffac">core/structures/CircularBuffer/CircularBuffer.ts</text>
</g>
<!-- core/structures/CircularBuffer/check.ts -->
<g id="node47" class="node">
<title>core/structures/CircularBuffer/check.ts</title>
<path fill="none" stroke="#c6c5fe" d="M728.33,-173.5C728.33,-173.5 487.17,-173.5 487.17,-173.5 483.08,-173.5 479,-169.42 479,-165.33 479,-165.33 479,-157.17 479,-157.17 479,-153.08 483.08,-149 487.17,-149 487.17,-149 728.33,-149 728.33,-149 732.42,-149 736.5,-153.08 736.5,-157.17 736.5,-157.17 736.5,-165.33 736.5,-165.33 736.5,-169.42 732.42,-173.5 728.33,-173.5"/>
<text text-anchor="middle" x="607.75" y="-156.2" font-family="Arial" font-size="14.00" fill="#c6c5fe">core/structures/CircularBuffer/check.ts</text>
</g>
<!-- core/structures/CircularBuffer/check.ts&#45;&gt;core/structures/CircularBuffer/CircularBuffer.ts -->
<g id="edge70" class="edge">
<title>core/structures/CircularBuffer/check.ts&#45;&gt;core/structures/CircularBuffer/CircularBuffer.ts</title>
<path fill="none" stroke="#757575" d="M736.83,-161.25C747.88,-161.25 759.15,-161.25 770.42,-161.25"/>
<polygon fill="#757575" stroke="#757575" points="770.23,-164.75 780.23,-161.25 770.23,-157.75 770.23,-164.75"/>
</g>
<!-- core/structures/FenwickTree/FenwickTree.ts -->
<g id="node48" class="node">
<title>core/structures/FenwickTree/FenwickTree.ts</title>
<path fill="none" stroke="#cfffac" d="M1075.08,-130.5C1075.08,-130.5 794.92,-130.5 794.92,-130.5 790.83,-130.5 786.75,-126.42 786.75,-122.33 786.75,-122.33 786.75,-114.17 786.75,-114.17 786.75,-110.08 790.83,-106 794.92,-106 794.92,-106 1075.08,-106 1075.08,-106 1079.17,-106 1083.25,-110.08 1083.25,-114.17 1083.25,-114.17 1083.25,-122.33 1083.25,-122.33 1083.25,-126.42 1079.17,-130.5 1075.08,-130.5"/>
<text text-anchor="middle" x="935" y="-113.2" font-family="Arial" font-size="14.00" fill="#cfffac">core/structures/FenwickTree/FenwickTree.ts</text>
</g>
<!-- core/structures/FenwickTree/check.ts -->
<g id="node49" class="node">
<title>core/structures/FenwickTree/check.ts</title>
<path fill="none" stroke="#c6c5fe" d="M725.71,-130.5C725.71,-130.5 489.79,-130.5 489.79,-130.5 485.71,-130.5 481.62,-126.42 481.62,-122.33 481.62,-122.33 481.62,-114.17 481.62,-114.17 481.62,-110.08 485.71,-106 489.79,-106 489.79,-106 725.71,-106 725.71,-106 729.79,-106 733.88,-110.08 733.88,-114.17 733.88,-114.17 733.88,-122.33 733.88,-122.33 733.88,-126.42 729.79,-130.5 725.71,-130.5"/>
<text text-anchor="middle" x="607.75" y="-113.2" font-family="Arial" font-size="14.00" fill="#c6c5fe">core/structures/FenwickTree/check.ts</text>
</g>
<!-- core/structures/FenwickTree/check.ts&#45;&gt;core/structures/FenwickTree/FenwickTree.ts -->
<g id="edge71" class="edge">
<title>core/structures/FenwickTree/check.ts&#45;&gt;core/structures/FenwickTree/FenwickTree.ts</title>
<path fill="none" stroke="#757575" d="M734.03,-118.25C747.72,-118.25 761.79,-118.25 775.81,-118.25"/>
<polygon fill="#757575" stroke="#757575" points="775.51,-121.75 785.51,-118.25 775.51,-114.75 775.51,-121.75"/>
</g>
<!-- core/structures/HashTable/HashTable.ts -->
<g id="node50" class="node">
<title>core/structures/HashTable/HashTable.ts</title>
<path fill="none" stroke="#cfffac" d="M1061.58,-431.5C1061.58,-431.5 808.42,-431.5 808.42,-431.5 804.33,-431.5 800.25,-427.42 800.25,-423.33 800.25,-423.33 800.25,-415.17 800.25,-415.17 800.25,-411.08 804.33,-407 808.42,-407 808.42,-407 1061.58,-407 1061.58,-407 1065.67,-407 1069.75,-411.08 1069.75,-415.17 1069.75,-415.17 1069.75,-423.33 1069.75,-423.33 1069.75,-427.42 1065.67,-431.5 1061.58,-431.5"/>
<text text-anchor="middle" x="935" y="-414.2" font-family="Arial" font-size="14.00" fill="#cfffac">core/structures/HashTable/HashTable.ts</text>
</g>
<!-- core/structures/HashTable/check.ts -->
<g id="node51" class="node">
<title>core/structures/HashTable/check.ts</title>
<path fill="none" stroke="#c6c5fe" d="M718.96,-431.5C718.96,-431.5 496.54,-431.5 496.54,-431.5 492.46,-431.5 488.38,-427.42 488.38,-423.33 488.38,-423.33 488.38,-415.17 488.38,-415.17 488.38,-411.08 492.46,-407 496.54,-407 496.54,-407 718.96,-407 718.96,-407 723.04,-407 727.12,-411.08 727.12,-415.17 727.12,-415.17 727.12,-423.33 727.12,-423.33 727.12,-427.42 723.04,-431.5 718.96,-431.5"/>
<text text-anchor="middle" x="607.75" y="-414.2" font-family="Arial" font-size="14.00" fill="#c6c5fe">core/structures/HashTable/check.ts</text>
</g>
<!-- core/structures/HashTable/check.ts&#45;&gt;core/structures/HashTable/HashTable.ts -->
<g id="edge72" class="edge">
<title>core/structures/HashTable/check.ts&#45;&gt;core/structures/HashTable/HashTable.ts</title>
<path fill="none" stroke="#757575" d="M727.55,-419.25C747.57,-419.25 768.53,-419.25 789.12,-419.25"/>
<polygon fill="#757575" stroke="#757575" points="788.84,-422.75 798.84,-419.25 788.84,-415.75 788.84,-422.75"/>
</g>
<!-- core/structures/MinHeap/MinHeap.ts -->
<g id="node52" class="node">
<title>core/structures/MinHeap/MinHeap.ts</title>
<path fill="none" stroke="#cfffac" d="M1048.83,-388.5C1048.83,-388.5 821.17,-388.5 821.17,-388.5 817.08,-388.5 813,-384.42 813,-380.33 813,-380.33 813,-372.17 813,-372.17 813,-368.08 817.08,-364 821.17,-364 821.17,-364 1048.83,-364 1048.83,-364 1052.92,-364 1057,-368.08 1057,-372.17 1057,-372.17 1057,-380.33 1057,-380.33 1057,-384.42 1052.92,-388.5 1048.83,-388.5"/>
<text text-anchor="middle" x="935" y="-371.2" font-family="Arial" font-size="14.00" fill="#cfffac">core/structures/MinHeap/MinHeap.ts</text>
</g>
<!-- core/structures/MinHeap/check.ts -->
<g id="node53" class="node">
<title>core/structures/MinHeap/check.ts</title>
<path fill="none" stroke="#c6c5fe" d="M712.58,-388.5C712.58,-388.5 502.92,-388.5 502.92,-388.5 498.83,-388.5 494.75,-384.42 494.75,-380.33 494.75,-380.33 494.75,-372.17 494.75,-372.17 494.75,-368.08 498.83,-364 502.92,-364 502.92,-364 712.58,-364 712.58,-364 716.67,-364 720.75,-368.08 720.75,-372.17 720.75,-372.17 720.75,-380.33 720.75,-380.33 720.75,-384.42 716.67,-388.5 712.58,-388.5"/>
<text text-anchor="middle" x="607.75" y="-371.2" font-family="Arial" font-size="14.00" fill="#c6c5fe">core/structures/MinHeap/check.ts</text>
</g>
<!-- core/structures/MinHeap/check.ts&#45;&gt;core/structures/MinHeap/MinHeap.ts -->
<g id="edge73" class="edge">
<title>core/structures/MinHeap/check.ts&#45;&gt;core/structures/MinHeap/MinHeap.ts</title>
<path fill="none" stroke="#757575" d="M721.14,-376.25C747.12,-376.25 775,-376.25 801.74,-376.25"/>
<polygon fill="#757575" stroke="#757575" points="801.73,-379.75 811.73,-376.25 801.73,-372.75 801.73,-379.75"/>
</g>
<!-- core/structures/Queue/Queue.ts -->
<g id="node54" class="node">
<title>core/structures/Queue/Queue.ts</title>
<path fill="none" stroke="#cfffac" d="M1036.08,-345.5C1036.08,-345.5 833.92,-345.5 833.92,-345.5 829.83,-345.5 825.75,-341.42 825.75,-337.33 825.75,-337.33 825.75,-329.17 825.75,-329.17 825.75,-325.08 829.83,-321 833.92,-321 833.92,-321 1036.08,-321 1036.08,-321 1040.17,-321 1044.25,-325.08 1044.25,-329.17 1044.25,-329.17 1044.25,-337.33 1044.25,-337.33 1044.25,-341.42 1040.17,-345.5 1036.08,-345.5"/>
<text text-anchor="middle" x="935" y="-328.2" font-family="Arial" font-size="14.00" fill="#cfffac">core/structures/Queue/Queue.ts</text>
</g>
<!-- core/structures/Queue/check.ts -->
<g id="node55" class="node">
<title>core/structures/Queue/check.ts</title>
<path fill="none" stroke="#c6c5fe" d="M706.21,-345.5C706.21,-345.5 509.29,-345.5 509.29,-345.5 505.21,-345.5 501.12,-341.42 501.12,-337.33 501.12,-337.33 501.12,-329.17 501.12,-329.17 501.12,-325.08 505.21,-321 509.29,-321 509.29,-321 706.21,-321 706.21,-321 710.29,-321 714.38,-325.08 714.38,-329.17 714.38,-329.17 714.38,-337.33 714.38,-337.33 714.38,-341.42 710.29,-345.5 706.21,-345.5"/>
<text text-anchor="middle" x="607.75" y="-328.2" font-family="Arial" font-size="14.00" fill="#c6c5fe">core/structures/Queue/check.ts</text>
</g>
<!-- core/structures/Queue/check.ts&#45;&gt;core/structures/Queue/Queue.ts -->
<g id="edge74" class="edge">
<title>core/structures/Queue/check.ts&#45;&gt;core/structures/Queue/Queue.ts</title>
<path fill="none" stroke="#757575" d="M714.8,-333.25C746.61,-333.25 781.72,-333.25 814.35,-333.25"/>
<polygon fill="#757575" stroke="#757575" points="814.31,-336.75 824.31,-333.25 814.31,-329.75 814.31,-336.75"/>
</g>
<!-- core/structures/RedBlackTree/RedBlackTree.ts -->
<g id="node56" class="node">
<title>core/structures/RedBlackTree/RedBlackTree.ts</title>
<path fill="none" stroke="#cfffac" d="M1084.83,-302.5C1084.83,-302.5 785.17,-302.5 785.17,-302.5 781.08,-302.5 777,-298.42 777,-294.33 777,-294.33 777,-286.17 777,-286.17 777,-282.08 781.08,-278 785.17,-278 785.17,-278 1084.83,-278 1084.83,-278 1088.92,-278 1093,-282.08 1093,-286.17 1093,-286.17 1093,-294.33 1093,-294.33 1093,-298.42 1088.92,-302.5 1084.83,-302.5"/>
<text text-anchor="middle" x="935" y="-285.2" font-family="Arial" font-size="14.00" fill="#cfffac">core/structures/RedBlackTree/RedBlackTree.ts</text>
</g>
<!-- core/structures/RedBlackTree/check.ts -->
<g id="node57" class="node">
<title>core/structures/RedBlackTree/check.ts</title>
<path fill="none" stroke="#c6c5fe" d="M730.58,-302.5C730.58,-302.5 484.92,-302.5 484.92,-302.5 480.83,-302.5 476.75,-298.42 476.75,-294.33 476.75,-294.33 476.75,-286.17 476.75,-286.17 476.75,-282.08 480.83,-278 484.92,-278 484.92,-278 730.58,-278 730.58,-278 734.67,-278 738.75,-282.08 738.75,-286.17 738.75,-286.17 738.75,-294.33 738.75,-294.33 738.75,-298.42 734.67,-302.5 730.58,-302.5"/>
<text text-anchor="middle" x="607.75" y="-285.2" font-family="Arial" font-size="14.00" fill="#c6c5fe">core/structures/RedBlackTree/check.ts</text>
</g>
<!-- core/structures/RedBlackTree/check.ts&#45;&gt;core/structures/RedBlackTree/RedBlackTree.ts -->
<g id="edge75" class="edge">
<title>core/structures/RedBlackTree/check.ts&#45;&gt;core/structures/RedBlackTree/RedBlackTree.ts</title>
<path fill="none" stroke="#757575" d="M739.17,-290.25C747.96,-290.25 756.89,-290.25 765.84,-290.25"/>
<polygon fill="#757575" stroke="#757575" points="765.76,-293.75 775.76,-290.25 765.76,-286.75 765.76,-293.75"/>
</g>
<!-- core/structures/SegmentTree/SegmentTree.ts -->
<g id="node58" class="node">
<title>core/structures/SegmentTree/SegmentTree.ts</title>
<path fill="none" stroke="#cfffac" d="M1081.08,-259.5C1081.08,-259.5 788.92,-259.5 788.92,-259.5 784.83,-259.5 780.75,-255.42 780.75,-251.33 780.75,-251.33 780.75,-243.17 780.75,-243.17 780.75,-239.08 784.83,-235 788.92,-235 788.92,-235 1081.08,-235 1081.08,-235 1085.17,-235 1089.25,-239.08 1089.25,-243.17 1089.25,-243.17 1089.25,-251.33 1089.25,-251.33 1089.25,-255.42 1085.17,-259.5 1081.08,-259.5"/>
<text text-anchor="middle" x="935" y="-242.2" font-family="Arial" font-size="14.00" fill="#cfffac">core/structures/SegmentTree/SegmentTree.ts</text>
</g>
<!-- core/structures/SegmentTree/check.ts -->
<g id="node59" class="node">
<title>core/structures/SegmentTree/check.ts</title>
<path fill="none" stroke="#c6c5fe" d="M728.71,-259.5C728.71,-259.5 486.79,-259.5 486.79,-259.5 482.71,-259.5 478.62,-255.42 478.62,-251.33 478.62,-251.33 478.62,-243.17 478.62,-243.17 478.62,-239.08 482.71,-235 486.79,-235 486.79,-235 728.71,-235 728.71,-235 732.79,-235 736.88,-239.08 736.88,-243.17 736.88,-243.17 736.88,-251.33 736.88,-251.33 736.88,-255.42 732.79,-259.5 728.71,-259.5"/>
<text text-anchor="middle" x="607.75" y="-242.2" font-family="Arial" font-size="14.00" fill="#c6c5fe">core/structures/SegmentTree/check.ts</text>
</g>
<!-- core/structures/SegmentTree/check.ts&#45;&gt;core/structures/SegmentTree/SegmentTree.ts -->
<g id="edge76" class="edge">
<title>core/structures/SegmentTree/check.ts&#45;&gt;core/structures/SegmentTree/SegmentTree.ts</title>
<path fill="none" stroke="#757575" d="M737.3,-247.25C747.88,-247.25 758.67,-247.25 769.47,-247.25"/>
<polygon fill="#757575" stroke="#757575" points="769.27,-250.75 779.27,-247.25 769.27,-243.75 769.27,-250.75"/>
</g>
<!-- core/structures/Stack/Stack.ts -->
<g id="node60" class="node">
<title>core/structures/Stack/Stack.ts</title>
<path fill="none" stroke="#cfffac" d="M1028.58,-216.5C1028.58,-216.5 841.42,-216.5 841.42,-216.5 837.33,-216.5 833.25,-212.42 833.25,-208.33 833.25,-208.33 833.25,-200.17 833.25,-200.17 833.25,-196.08 837.33,-192 841.42,-192 841.42,-192 1028.58,-192 1028.58,-192 1032.67,-192 1036.75,-196.08 1036.75,-200.17 1036.75,-200.17 1036.75,-208.33 1036.75,-208.33 1036.75,-212.42 1032.67,-216.5 1028.58,-216.5"/>
<text text-anchor="middle" x="935" y="-199.2" font-family="Arial" font-size="14.00" fill="#cfffac">core/structures/Stack/Stack.ts</text>
</g>
<!-- core/structures/Stack/check.ts -->
<g id="node61" class="node">
<title>core/structures/Stack/check.ts</title>
<path fill="none" stroke="#c6c5fe" d="M702.46,-216.5C702.46,-216.5 513.04,-216.5 513.04,-216.5 508.96,-216.5 504.88,-212.42 504.88,-208.33 504.88,-208.33 504.88,-200.17 504.88,-200.17 504.88,-196.08 508.96,-192 513.04,-192 513.04,-192 702.46,-192 702.46,-192 706.54,-192 710.62,-196.08 710.62,-200.17 710.62,-200.17 710.62,-208.33 710.62,-208.33 710.62,-212.42 706.54,-216.5 702.46,-216.5"/>
<text text-anchor="middle" x="607.75" y="-199.2" font-family="Arial" font-size="14.00" fill="#c6c5fe">core/structures/Stack/check.ts</text>
</g>
<!-- core/structures/Stack/check.ts&#45;&gt;core/structures/Stack/Stack.ts -->
<g id="edge77" class="edge">
<title>core/structures/Stack/check.ts&#45;&gt;core/structures/Stack/Stack.ts</title>
<path fill="none" stroke="#757575" d="M710.77,-204.25C746.21,-204.25 786.13,-204.25 822.3,-204.25"/>
<polygon fill="#757575" stroke="#757575" points="821.9,-207.75 831.9,-204.25 821.9,-200.75 821.9,-207.75"/>
</g>
<!-- core/structures/checkAll.ts -->
<g id="node62" class="node">
<title>core/structures/checkAll.ts</title>
<path fill="none" stroke="#c6c5fe" d="M359.08,-324.5C359.08,-324.5 192.92,-324.5 192.92,-324.5 188.83,-324.5 184.75,-320.42 184.75,-316.33 184.75,-316.33 184.75,-308.17 184.75,-308.17 184.75,-304.08 188.83,-300 192.92,-300 192.92,-300 359.08,-300 359.08,-300 363.17,-300 367.25,-304.08 367.25,-308.17 367.25,-308.17 367.25,-316.33 367.25,-316.33 367.25,-320.42 363.17,-324.5 359.08,-324.5"/>
<text text-anchor="middle" x="276" y="-307.2" font-family="Arial" font-size="14.00" fill="#c6c5fe">core/structures/checkAll.ts</text>
</g>
<!-- core/structures/checkAll.ts&#45;&gt;core/structures/BinaryHeap/check.ts -->
<g id="edge78" class="edge">
<title>core/structures/checkAll.ts&#45;&gt;core/structures/BinaryHeap/check.ts</title>
<path fill="none" stroke="#757575" d="M291.68,-324.88C322.95,-351.04 399.45,-411.15 474.5,-440.25 480.69,-442.65 487.15,-444.79 493.74,-446.7"/>
<polygon fill="#757575" stroke="#757575" points="492.6,-450.29 503.17,-449.51 494.42,-443.53 492.6,-450.29"/>
</g>
<!-- core/structures/checkAll.ts&#45;&gt;core/structures/CircularBuffer/check.ts -->
<g id="edge79" class="edge">
<title>core/structures/checkAll.ts&#45;&gt;core/structures/CircularBuffer/check.ts</title>
<path fill="none" stroke="#757575" d="M291.66,-299.52C322.9,-273.15 399.33,-212.55 474.5,-183.25 480.69,-180.84 487.15,-178.69 493.73,-176.77"/>
<polygon fill="#757575" stroke="#757575" points="494.42,-179.94 503.16,-173.96 492.59,-173.19 494.42,-179.94"/>
</g>
<!-- core/structures/checkAll.ts&#45;&gt;core/structures/FenwickTree/check.ts -->
<g id="edge80" class="edge">
<title>core/structures/checkAll.ts&#45;&gt;core/structures/FenwickTree/check.ts</title>
<path fill="none" stroke="#757575" d="M295.16,-299.59C326.11,-277.62 390.38,-230.28 438.5,-183.25 456.33,-165.83 452.86,-152.62 474.5,-140.25 477.78,-138.37 481.18,-136.65 484.67,-135.06"/>
<polygon fill="#757575" stroke="#757575" points="485.78,-137.97 493.7,-130.94 483.12,-131.5 485.78,-137.97"/>
</g>
<!-- core/structures/checkAll.ts&#45;&gt;core/structures/HashTable/check.ts -->
<g id="edge81" class="edge">
<title>core/structures/checkAll.ts&#45;&gt;core/structures/HashTable/check.ts</title>
<path fill="none" stroke="#757575" d="M301.23,-324.96C337.79,-343.6 409.67,-378.21 474.5,-397.25 483.42,-399.87 492.78,-402.21 502.23,-404.29"/>
<polygon fill="#757575" stroke="#757575" points="501.4,-407.9 511.91,-406.53 502.84,-401.05 501.4,-407.9"/>
</g>
<!-- core/structures/checkAll.ts&#45;&gt;core/structures/MinHeap/check.ts -->
<g id="edge82" class="edge">
<title>core/structures/checkAll.ts&#45;&gt;core/structures/MinHeap/check.ts</title>
<path fill="none" stroke="#757575" d="M333.48,-324.96C372.9,-333.66 426.8,-345.21 474.5,-354.25 487.89,-356.79 502.08,-359.31 516,-361.7"/>
<polygon fill="#757575" stroke="#757575" points="515.13,-365.28 525.57,-363.5 516.3,-358.38 515.13,-365.28"/>
</g>
<!-- core/structures/checkAll.ts&#45;&gt;core/structures/Queue/check.ts -->
<g id="edge83" class="edge">
<title>core/structures/checkAll.ts&#45;&gt;core/structures/Queue/check.ts</title>
<path fill="none" stroke="#757575" d="M367.54,-318.02C405.27,-320.42 449.56,-323.24 489.71,-325.8"/>
<polygon fill="#757575" stroke="#757575" points="489.43,-329.35 499.64,-326.49 489.88,-322.36 489.43,-329.35"/>
</g>
<!-- core/structures/checkAll.ts&#45;&gt;core/structures/RedBlackTree/check.ts -->
<g id="edge84" class="edge">
<title>core/structures/checkAll.ts&#45;&gt;core/structures/RedBlackTree/check.ts</title>
<path fill="none" stroke="#757575" d="M367.54,-306.21C397.82,-304.19 432.33,-301.89 465.53,-299.67"/>
<polygon fill="#757575" stroke="#757575" points="465.52,-303.11 475.26,-298.96 465.05,-296.13 465.52,-303.11"/>
</g>
<!-- core/structures/checkAll.ts&#45;&gt;core/structures/SegmentTree/check.ts -->
<g id="edge85" class="edge">
<title>core/structures/checkAll.ts&#45;&gt;core/structures/SegmentTree/check.ts</title>
<path fill="none" stroke="#757575" d="M331.76,-299.56C371.32,-290.59 426.08,-278.54 474.5,-269.25 487.8,-266.7 501.88,-264.17 515.7,-261.79"/>
<polygon fill="#757575" stroke="#757575" points="515.94,-265.13 525.21,-259.99 514.76,-258.23 515.94,-265.13"/>
</g>
<!-- core/structures/checkAll.ts&#45;&gt;core/structures/Stack/check.ts -->
<g id="edge86" class="edge">
<title>core/structures/checkAll.ts&#45;&gt;core/structures/Stack/check.ts</title>
<path fill="none" stroke="#757575" d="M300.91,-299.53C337.34,-280.69 409.41,-245.51 474.5,-226.25 483.34,-223.63 492.61,-221.3 501.96,-219.23"/>
<polygon fill="#757575" stroke="#757575" points="502.48,-222.48 511.54,-216.99 501.03,-215.63 502.48,-222.48"/>
</g>
<!-- core/utils/PathResolver/PathResolver.ts -->
<g id="node63" class="node">
<title>core/utils/PathResolver/PathResolver.ts</title>
<path fill="none" stroke="#c6c5fe" d="M732.83,-44.5C732.83,-44.5 482.67,-44.5 482.67,-44.5 478.58,-44.5 474.5,-40.42 474.5,-36.33 474.5,-36.33 474.5,-28.17 474.5,-28.17 474.5,-24.08 478.58,-20 482.67,-20 482.67,-20 732.83,-20 732.83,-20 736.92,-20 741,-24.08 741,-28.17 741,-28.17 741,-36.33 741,-36.33 741,-40.42 736.92,-44.5 732.83,-44.5"/>
<text text-anchor="middle" x="607.75" y="-27.2" font-family="Arial" font-size="14.00" fill="#c6c5fe">core/utils/PathResolver/PathResolver.ts</text>
</g>
<!-- core/utils/PathResolver/types.ts -->
<g id="node64" class="node">
<title>core/utils/PathResolver/types.ts</title>
<path fill="none" stroke="#cfffac" d="M1034.58,-24.5C1034.58,-24.5 835.42,-24.5 835.42,-24.5 831.33,-24.5 827.25,-20.42 827.25,-16.33 827.25,-16.33 827.25,-8.17 827.25,-8.17 827.25,-4.08 831.33,0 835.42,0 835.42,0 1034.58,0 1034.58,0 1038.67,0 1042.75,-4.08 1042.75,-8.17 1042.75,-8.17 1042.75,-16.33 1042.75,-16.33 1042.75,-20.42 1038.67,-24.5 1034.58,-24.5"/>
<text text-anchor="middle" x="935" y="-7.2" font-family="Arial" font-size="14.00" fill="#cfffac">core/utils/PathResolver/types.ts</text>
</g>
<!-- core/utils/PathResolver/PathResolver.ts&#45;&gt;core/utils/PathResolver/types.ts -->
<g id="edge87" class="edge">
<title>core/utils/PathResolver/PathResolver.ts&#45;&gt;core/utils/PathResolver/types.ts</title>
<path fill="none" stroke="#757575" d="M741.04,-24.12C765.94,-22.58 791.82,-20.99 816.23,-19.49"/>
<polygon fill="#757575" stroke="#757575" points="816.2,-22.94 825.97,-18.83 815.77,-15.95 816.2,-22.94"/>
</g>
<!-- paths.ts -->
<g id="node65" class="node">
<title>paths.ts</title>
<path fill="none" stroke="#c6c5fe" d="M300.58,-44.5C300.58,-44.5 251.42,-44.5 251.42,-44.5 247.33,-44.5 243.25,-40.42 243.25,-36.33 243.25,-36.33 243.25,-28.17 243.25,-28.17 243.25,-24.08 247.33,-20 251.42,-20 251.42,-20 300.58,-20 300.58,-20 304.67,-20 308.75,-24.08 308.75,-28.17 308.75,-28.17 308.75,-36.33 308.75,-36.33 308.75,-40.42 304.67,-44.5 300.58,-44.5"/>
<text text-anchor="middle" x="276" y="-27.2" font-family="Arial" font-size="14.00" fill="#c6c5fe">paths.ts</text>
</g>
<!-- paths.ts&#45;&gt;core/utils/PathResolver/PathResolver.ts -->
<g id="edge88" class="edge">
<title>paths.ts&#45;&gt;core/utils/PathResolver/PathResolver.ts</title>
<path fill="none" stroke="#757575" d="M309.22,-32.25C345.3,-32.25 406.26,-32.25 463.64,-32.25"/>
<polygon fill="#757575" stroke="#757575" points="463.31,-35.75 473.31,-32.25 463.31,-28.75 463.31,-35.75"/>
</g>
<!-- paths.ts&#45;&gt;core/utils/PathResolver/types.ts -->
<g id="edge89" class="edge">
<title>paths.ts&#45;&gt;core/utils/PathResolver/types.ts</title>
<path fill="none" stroke="#757575" d="M309.07,-27.78C348.08,-22.6 415.96,-14.35 474.5,-11.25 592.78,-4.98 622.56,-10.94 741,-11.25 765.23,-11.31 791.16,-11.42 815.91,-11.54"/>
<polygon fill="#757575" stroke="#757575" points="815.79,-15.05 825.81,-11.6 815.83,-8.05 815.79,-15.05"/>
</g>
<!-- server.tsx -->
<g id="node66" class="node">
<title>server.tsx</title>
<path fill="none" stroke="#c6c5fe" d="M69.33,-597.5C69.33,-597.5 8.17,-597.5 8.17,-597.5 4.08,-597.5 0,-593.42 0,-589.33 0,-589.33 0,-581.17 0,-581.17 0,-577.08 4.08,-573 8.17,-573 8.17,-573 69.33,-573 69.33,-573 73.42,-573 77.5,-577.08 77.5,-581.17 77.5,-581.17 77.5,-589.33 77.5,-589.33 77.5,-593.42 73.42,-597.5 69.33,-597.5"/>
<text text-anchor="middle" x="38.75" y="-580.2" font-family="Arial" font-size="14.00" fill="#c6c5fe">server.tsx</text>
</g>
<!-- server.tsx&#45;&gt;core/emitter/Emitter.ts -->
<g id="edge90" class="edge">
<title>server.tsx&#45;&gt;core/emitter/Emitter.ts</title>
<path fill="none" stroke="#757575" d="M44.02,-597.69C52.8,-621.1 75.35,-671.26 113.5,-692.25 305.72,-797.99 387.37,-711.25 606.75,-711.25 606.75,-711.25 606.75,-711.25 1932,-711.25 2148.02,-711.25 2401.99,-721.2 2532.92,-727.06"/>
<polygon fill="#757575" stroke="#757575" points="2532.52,-730.59 2542.67,-727.55 2532.84,-723.6 2532.52,-730.59"/>
</g>
<!-- server.tsx&#45;&gt;core/reports/access/AccessReportGenerator.ts -->
<g id="edge91" class="edge">
<title>server.tsx&#45;&gt;core/reports/access/AccessReportGenerator.ts</title>
<path fill="none" stroke="#757575" d="M50.01,-597.78C63.06,-612.76 87.09,-637.3 113.5,-649.25 118.24,-651.4 123.14,-653.35 128.15,-655.13"/>
<polygon fill="#757575" stroke="#757575" points="126.96,-658.75 137.55,-658.52 129.13,-652.09 126.96,-658.75"/>
</g>
<!-- server.tsx&#45;&gt;core/reports/audit/AuditReportGenerator.ts -->
<g id="edge92" class="edge">
<title>server.tsx&#45;&gt;core/reports/audit/AuditReportGenerator.ts</title>
<path fill="none" stroke="#757575" d="M77.77,-597.19C89.18,-600.47 101.77,-603.79 113.5,-606.25 126.96,-609.07 141.14,-611.61 155.26,-613.88"/>
<polygon fill="#757575" stroke="#757575" points="154.63,-617.48 165.05,-615.56 155.71,-610.56 154.63,-617.48"/>
</g>
<!-- server.tsx&#45;&gt;core/reports/error/ErrorReportGenerator.ts -->
<g id="edge93" class="edge">
<title>server.tsx&#45;&gt;core/reports/error/ErrorReportGenerator.ts</title>
<path fill="none" stroke="#757575" d="M77.81,-585.25C90.77,-585.25 106.16,-585.25 122.53,-585.25"/>
<polygon fill="#757575" stroke="#757575" points="122.42,-588.75 132.42,-585.25 122.42,-581.75 122.42,-588.75"/>
</g>
<!-- server.tsx&#45;&gt;core/reports/query/QueryReportGenerator.ts -->
<g id="edge94" class="edge">
<title>server.tsx&#45;&gt;core/reports/query/QueryReportGenerator.ts</title>
<path fill="none" stroke="#757575" d="M77.77,-573.31C89.18,-570.03 101.77,-566.71 113.5,-564.25 126.96,-561.43 141.14,-558.89 155.26,-556.62"/>
<polygon fill="#757575" stroke="#757575" points="155.71,-559.94 165.05,-554.94 154.63,-553.02 155.71,-559.94"/>
</g>
<!-- server.tsx&#45;&gt;core/reports/request/RequestReportGenerator.ts -->
<g id="edge95" class="edge">
<title>server.tsx&#45;&gt;core/reports/request/RequestReportGenerator.ts</title>
<path fill="none" stroke="#757575" d="M40.1,-572.67C41.84,-529.77 52.18,-386.64 113.5,-291.25 145.74,-241.09 204.16,-201.7 241.2,-180.23"/>
<polygon fill="#757575" stroke="#757575" points="242.61,-182.89 249.58,-174.91 239.16,-176.8 242.61,-182.89"/>
</g>
<!-- server.tsx&#45;&gt;core/server/SyServer.ts -->
<g id="edge96" class="edge">
<title>server.tsx&#45;&gt;core/server/SyServer.ts</title>
<path fill="none" stroke="#757575" d="M44.99,-597.78C75.12,-669.75 226.23,-1030.75 265.61,-1124.81"/>
<polygon fill="#757575" stroke="#757575" points="262.65,-1125.82 269.74,-1133.69 269.11,-1123.12 262.65,-1125.82"/>
</g>
<!-- server.tsx&#45;&gt;core/structures/checkAll.ts -->
<g id="edge97" class="edge">
<title>server.tsx&#45;&gt;core/structures/checkAll.ts</title>
<path fill="none" stroke="#757575" d="M50.47,-572.81C87.59,-529.73 210.93,-386.61 257.23,-332.87"/>
<polygon fill="#757575" stroke="#757575" points="260.34,-335.62 264.22,-325.76 255.04,-331.05 260.34,-335.62"/>
</g>
<!-- server.tsx&#45;&gt;paths.ts -->
<g id="edge98" class="edge">
<title>server.tsx&#45;&gt;paths.ts</title>
<path fill="none" stroke="#757575" d="M40.5,-572.75C44.56,-508.55 65.47,-216.04 113.5,-141.25 141.94,-96.96 195.47,-66.24 233.08,-48.96"/>
<polygon fill="#757575" stroke="#757575" points="234.05,-51.92 241.76,-44.65 231.2,-45.52 234.05,-51.92"/>
</g>
</g>
</svg>
